<?xml version="1.0" encoding="UTF-8" standalone="no"?>
<!-- Created with Inkscape (http://www.inkscape.org/) -->

<svg
   xmlns:dc="http://purl.org/dc/elements/1.1/"
   xmlns:cc="http://creativecommons.org/ns#"
   xmlns:rdf="http://www.w3.org/1999/02/22-rdf-syntax-ns#"
   xmlns:svg="http://www.w3.org/2000/svg"
   xmlns="http://www.w3.org/2000/svg"
   xmlns:xlink="http://www.w3.org/1999/xlink"
   xmlns:sodipodi="http://sodipodi.sourceforge.net/DTD/sodipodi-0.dtd"
   xmlns:inkscape="http://www.inkscape.org/namespaces/inkscape"
   width="210mm"
   height="297mm"
   viewBox="0 0 210 297"
   version="1.1"
   id="svg875"
   inkscape:version="0.92.3 (2405546, 2018-03-11)"
   sodipodi:docname="eOpenSvg.svg">
  <defs
     id="defs869" />
  <sodipodi:namedview
     id="base"
     pagecolor="#ffffff"
     bordercolor="#666666"
     borderopacity="1.0"
     inkscape:pageopacity="0.0"
     inkscape:pageshadow="2"
     inkscape:zoom="0.33095235"
     inkscape:cx="792.21678"
     inkscape:cy="313.04718"
     inkscape:document-units="mm"
     inkscape:current-layer="layer1"
     showgrid="false"
     inkscape:snap-global="false"
     inkscape:window-width="1366"
     inkscape:window-height="700"
     inkscape:window-x="0"
     inkscape:window-y="0"
     inkscape:window-maximized="1" />
  <metadata
     id="metadata872">
    <rdf:RDF>
      <cc:Work
         rdf:about="">
        <dc:format>image/svg+xml</dc:format>
        <dc:type
           rdf:resource="http://purl.org/dc/dcmitype/StillImage" />
        <dc:title></dc:title>
      </cc:Work>
    </rdf:RDF>
  </metadata>
  <g
     inkscape:groupmode="layer"
     id="layer2"
     inkscape:label="Blocks">
    <rect
       style="opacity:1;fill:#f9f9f9;fill-opacity:1;fill-rule:evenodd;stroke:none;stroke-width:0.66499996;stroke-linecap:round;stroke-miterlimit:4;stroke-dasharray:none;stroke-dashoffset:0;stroke-opacity:1"
       id="rect1864"
       width="199.64343"
       height="17.360298"
       x="9.7217674"
       y="12.291105"
       ry="8.6801491" />
    <path
       style="fill:#a8ffff;fill-opacity:1;stroke:none;stroke-width:0.35254008px;stroke-linecap:butt;stroke-linejoin:miter;stroke-opacity:1"
       d="m 16.418355,87.651335 151.693145,3.20149 c 10.81378,5.342153 14.54932,12.706665 17.08691,20.413445 l -6.43998,85.50114 c -1.51699,9.50483 -6.29156,14.9377 -12.58054,18.47753 L 19.840699,217.82804 7.8247606,207.90768 6.9091437,117.32181 Z"
       id="path1626"
       inkscape:connector-curvature="0"
       sodipodi:nodetypes="ccccccccc" />
    <path
       style="fill:#ffff9e;fill-opacity:1;stroke:none;stroke-width:0.2932041px;stroke-linecap:butt;stroke-linejoin:miter;stroke-opacity:1"
       d="m 153.57642,11.583878 c -5.27346,3.509573 -4.29173,13.204727 -0.74773,17.63833 2.45011,2.981581 9.17327,3.048748 11.75829,3.048748 4.00002,0 5.33337,0 2.66668,6.666707 -2.66668,6.666709 -9.70692,14.723492 -15.04029,16.723503 -5.33336,2.000011 -30.44935,13.290853 -31.11602,19.95756 -0.66667,6.666709 2.15603,19.319286 2.15603,24.652654 0,5.33337 10.66675,15.33342 7.33339,3.33335 -3.33336,-12.000071 -10.00006,-31.333525 1.33334,-36.666891 16.72308,-7.682069 32.49497,-13.603346 42.11558,-28.564253 2.57531,-4.002558 4.70305,-7.128587 7.21805,-6.7693 4.66671,0.66667 13.90186,1.825813 17.82592,-2.000013 2.45168,-2.390304 5.35765,-13.161236 -3.03881,-18.657415 -12.19559,-3.5576765 -30.80368,-4.7696157 -42.46443,0.63702 z"
       id="path1861"
       inkscape:connector-curvature="0"
       sodipodi:nodetypes="ccssscsscccscc" />
    <path
       style="fill:#ffff9e;fill-opacity:1;stroke:#000000;stroke-width:0.18320327px;stroke-linecap:butt;stroke-linejoin:miter;stroke-opacity:1"
       d="m 133.96045,49.521002 c 0,0 -48.730401,8.848472 -47.106055,8.532455 1.624347,-0.316017 40.202585,8.848472 40.202585,8.848472 l 47.10604,-7.268388 z"
       id="path1443"
       inkscape:connector-curvature="0" />
    <path
       style="fill:none;stroke:#000000;stroke-width:0.84775239;stroke-linecap:butt;stroke-linejoin:miter;stroke-miterlimit:4;stroke-dasharray:none;stroke-opacity:1"
       d="m 178.18897,60.299066 c 1.38414,0 25.26047,0 25.26047,0 l 12.80326,19.723933 -6.22861,-4.498442 4.84448,-3.460339 0.69206,5.882578"
       id="path1770"
       inkscape:connector-curvature="0" />
    <path
       style="fill:none;stroke:#000000;stroke-width:0.73693514;stroke-linecap:butt;stroke-linejoin:miter;stroke-miterlimit:4;stroke-dasharray:none;stroke-opacity:1"
       d="M 85.451882,59.260965 42.889715,58.914931 39.083341,86.251609 38.391272,74.140424 h 5.536543 l -3.460339,8.650846"
       id="path1772"
       inkscape:connector-curvature="0" />
  </g>
  <g
     inkscape:label="Layer 1"
     inkscape:groupmode="layer"
     id="layer1">
    <path
       style="fill:#a8ffcc;fill-opacity:1;stroke:none;stroke-width:0.2932041px;stroke-linecap:butt;stroke-linejoin:miter;stroke-opacity:1"
       d="m 272.42828,82.743977 c -20.64384,0 -58.3413,-0.897557 -63.72664,0 -5.38536,0.897559 -11.21948,5.834131 -11.21948,13.463375 0,7.629248 0.89756,35.453548 0.89756,42.185238 0,6.73169 15.70726,14.36093 38.595,17.05362 22.88775,2.69267 170.98488,2.24388 183.10192,1.79511 12.11705,-0.44878 23.33653,-17.05361 23.33653,-29.61943 0,-12.56581 8.52679,-40.390119 -3.14148,-43.980354 -11.66825,-3.590235 -54.30228,-6.731688 -68.66321,-6.28291 -14.36093,0.448781 -99.1802,5.385351 -99.1802,5.385351 z"
       id="path1768"
       inkscape:connector-curvature="0" />
    <path
       style="fill:#ffff9e;fill-opacity:1;stroke:#00ff00;stroke-width:0.2932041px;stroke-linecap:butt;stroke-linejoin:miter;stroke-opacity:1"
       d="m 124.49787,98.060901 c -7.46256,0.466411 -9.79461,0.699618 -10.02781,5.830129 -0.23321,5.13051 0.93281,10.49422 -8.86179,11.66025 -9.79461,1.16602 -36.379979,-0.46641 -42.210102,-0.23321 -5.830124,0.23321 -11.193839,2.79846 -11.193839,6.99615 0,4.19769 -0.699614,34.7868 -0.233206,39.91731 0.466412,5.13051 -2.332049,14.2255 13.292684,15.85793 15.624734,1.63244 73.226373,1.63244 81.621743,1.86565 8.39538,0.2332 18.88961,-3.96449 18.88961,-13.52589 0,-9.5614 0.69961,-32.68797 1.16602,-39.68411 0.46641,-6.99615 -5.59692,-11.89345 -10.26102,-12.35986 -4.6641,-0.46641 -7.46256,-5.13051 -7.69576,-9.5614 -0.23321,-4.4309 -1.86563,-5.830126 -8.16217,-6.529742 -6.29654,-0.699616 -16.32436,-0.233207 -16.32436,-0.233207 z"
       id="path1760"
       inkscape:connector-curvature="0"
       sodipodi:nodetypes="cssssssssssssc" />
    <path
       style="fill:#ffe79e;fill-opacity:1;stroke:#b3b3b3;stroke-width:0.2932041px;stroke-linecap:butt;stroke-linejoin:miter;stroke-opacity:1"
       d="m 60.571688,140.45147 -14.970588,1.20718 2.365676,3.87522 c -11.81427,9.0879 -15.152543,22.75775 -16.709771,36.84922 -4.582612,-0.0735 -7.537981,-0.0991 -7.537981,-0.0991 -14.3971006,0.75775 -14.3971206,8.71395 -14.0182495,14.77589 0.3788715,6.06194 3.7884975,9.47166 13.6391455,10.98714 9.850649,1.51548 66.302451,1.51559 72.743257,1.13673 6.440813,-0.37886 11.745213,-1.89423 10.608603,-12.8815 -1.13661,-10.98726 -10.987262,-9.09302 -24.247749,-11.36625 -7.862281,-1.34781 -27.00484,-2.02642 -41.320592,-2.35823 -0.08267,-12.00909 0.04529,-23.7658 9.874448,-32.25417 l 2.272904,3.16626 z"
       id="path1755"
       inkscape:connector-curvature="0" />
    <text
       xml:space="preserve"
       style="font-style:normal;font-weight:normal;font-size:17.91665268px;line-height:1.25;font-family:sans-serif;letter-spacing:0px;word-spacing:0px;fill:#000000;fill-opacity:1;stroke:none;stroke-width:0.95982069"
       x="120.42733"
       y="64.420486"
       id="text1441"><tspan
         sodipodi:role="line"
         id="tspan1439"
         x="120.42733"
         y="64.420486"
         style="stroke-width:0.95982069">#</tspan></text>
    <text
       xml:space="preserve"
       style="font-style:normal;font-weight:normal;font-size:10.40920734px;line-height:1.25;font-family:sans-serif;letter-spacing:0px;word-spacing:0px;fill:#000000;fill-opacity:1;stroke:none;stroke-width:0.55763614"
       x="71.501068"
       y="55.700497"
       id="text1618"><tspan
         sodipodi:role="line"
         id="tspan1616"
         x="71.501068"
         y="55.700497"
         style="stroke-width:0.55763614">Y</tspan></text>
    <text
       xml:space="preserve"
       style="font-style:normal;font-weight:normal;font-size:11.43555737px;line-height:1.25;font-family:sans-serif;letter-spacing:0px;word-spacing:0px;fill:#000000;fill-opacity:1;stroke:none;stroke-width:0.61261916"
       x="178.30942"
       y="56.35424"
       id="text1622"><tspan
         sodipodi:role="line"
         id="tspan1620"
         x="178.30942"
         y="56.35424"
         style="stroke-width:0.61261916">No</tspan></text>
    <path
       style="fill:none;stroke:#000000;stroke-width:0.41705996px;stroke-linecap:butt;stroke-linejoin:miter;stroke-opacity:1"
       d="M 58.278022,134.80022 H 160.59454"
       id="path1449"
       inkscape:connector-curvature="0" />
    <path
       style="fill:none;stroke:#000000;stroke-width:0.42258564px;stroke-linecap:butt;stroke-linejoin:miter;stroke-opacity:1"
       d="M 59.184493,148.77145 162.71006,148.05912"
       id="path1451"
       inkscape:connector-curvature="0" />
    <text
       xml:space="preserve"
       style="font-style:normal;font-weight:normal;font-size:11.63651943px;line-height:1.25;font-family:sans-serif;letter-spacing:0px;word-spacing:0px;fill:#000000;fill-opacity:1;stroke:none;stroke-width:0.62338495"
       x="100.98418"
       y="146.0295"
       id="text1441-3"><tspan
         sodipodi:role="line"
         id="tspan1439-6"
         x="100.98418"
         y="146.0295"
         style="stroke-width:0.62338495">#</tspan></text>
    <g
       id="use1505"
       transform="matrix(1.9366966,0,0,1.9366966,-105.44226,-96.775782)">
      <path
         style="fill:none;stroke:#000000;stroke-width:0.24215981px;stroke-linecap:butt;stroke-linejoin:miter;stroke-opacity:1"
         d="M 86.46259,116.64604 85.727072,129.1445"
         id="path1531"
         inkscape:connector-curvature="0" />
    </g>
    <use
       x="0"
       y="0"
       xlink:href="#use1505"
       id="use1557"
       transform="translate(9.3528953)"
       width="100%"
       height="100%" />
    <use
       x="0"
       y="0"
       xlink:href="#use1505"
       id="use1557-9"
       transform="translate(19.673331,0.80628627)"
       width="100%"
       height="100%" />
    <use
       x="0"
       y="0"
       xlink:href="#use1505"
       id="use1557-1"
       transform="translate(29.026226,0.80628627)"
       width="100%"
       height="100%" />
    <use
       x="0"
       y="0"
       xlink:href="#use1505"
       id="use1557-2"
       transform="translate(39.346663,0.48377245)"
       width="100%"
       height="100%" />
    <use
       x="0"
       y="0"
       xlink:href="#use1505"
       id="use1557-7"
       transform="translate(49.648587,-0.80628231)"
       width="100%"
       height="100%" />
    <use
       x="0"
       y="0"
       xlink:href="#use1505"
       id="use1557-0"
       transform="translate(57.342741,-0.24879645)"
       width="100%"
       height="100%" />
    <use
       x="0"
       y="0"
       xlink:href="#use1505"
       id="use1557-93"
       transform="translate(66.907522,-0.63119683)"
       width="100%"
       height="100%" />
    <use
       x="0"
       y="0"
       xlink:href="#use1505"
       id="use1557-6"
       transform="translate(76.205104,-0.63119683)"
       width="100%"
       height="100%" />
    <use
       x="0"
       y="0"
       xlink:href="#use1505"
       id="use1557-06"
       transform="translate(85.106345,-0.83850975)"
       width="100%"
       height="100%" />
    <path
       style="fill:none;stroke:#0000ff;stroke-width:0.51241761px;stroke-linecap:butt;stroke-linejoin:miter;stroke-opacity:1"
       d="m 59.644921,126.27731 c -0.487147,-4.62788 0.243572,-6.57644 2.92286,-7.30716 2.679292,-0.73072 58.042499,-0.47678 60.721799,-0.96392 2.67929,-0.48715 3.5971,-2.41754 4.62786,-5.60216 1.01187,2.9982 2.35449,5.097 10.17117,5.57392 4.14072,0.24358 11.67796,0.0178 13.13939,0.26145 1.46143,0.24357 6.82002,0.97428 7.55073,4.87143"
       id="path1633"
       inkscape:connector-curvature="0"
       sodipodi:nodetypes="cccccsc" />
    <path
       style="fill:none;stroke:#0000ff;stroke-width:0.497731;stroke-linecap:butt;stroke-linejoin:miter;stroke-miterlimit:4;stroke-dasharray:none;stroke-opacity:1"
       d="m 57.924255,153.78251 c -0.204252,3.86527 0.102118,5.49274 1.225509,6.10305 1.123383,0.61029 15.8295,0.20342 16.952884,0.61029 1.123385,0.40687 1.50821,2.01915 1.94039,4.67899 0.42426,-2.50415 0.9872,-4.25706 4.264605,-4.65542 1.736138,-0.20342 13.403159,0.17973 14.015912,-0.0236 0.612755,-0.20342 2.859523,-0.81372 3.165903,-4.06869"
       id="path1633-2"
       inkscape:connector-curvature="0"
       sodipodi:nodetypes="cccccsc" />
    <path
       style="fill:none;stroke:#0000ff;stroke-width:0.497731;stroke-linecap:butt;stroke-linejoin:miter;stroke-miterlimit:4;stroke-dasharray:none;stroke-opacity:1"
       d="m 113.07581,155.08873 c -0.20425,3.86528 0.10217,5.49274 1.22551,6.10306 1.12339,0.61029 15.8295,0.20341 16.95288,0.61029 1.12339,0.40685 1.50822,2.01913 1.94039,4.67898 0.42427,-2.50415 0.98721,-4.25706 4.26461,-4.65541 1.73614,-0.20344 13.40316,0.17972 14.01592,-0.0236 0.61275,-0.20342 2.85951,-0.81374 3.16589,-4.06869"
       id="path1633-2-6"
       inkscape:connector-curvature="0"
       sodipodi:nodetypes="cccccsc" />
    <text
       xml:space="preserve"
       style="font-style:normal;font-weight:normal;font-size:8.00481415px;line-height:1.25;font-family:sans-serif;letter-spacing:0px;word-spacing:0px;fill:#000000;fill-opacity:1;stroke:none;stroke-width:0.42882934"
       x="63.577572"
       y="176.07979"
       id="text1687"><tspan
         sodipodi:role="line"
         id="tspan1685"
         x="63.577572"
         y="176.07979"
         style="stroke-width:0.42882934">t21[0]</tspan></text>
    <text
       xml:space="preserve"
       style="font-style:normal;font-weight:normal;font-size:8.00481415px;line-height:1.25;font-family:sans-serif;letter-spacing:0px;word-spacing:0px;fill:#000000;fill-opacity:1;stroke:none;stroke-width:0.42882934"
       x="119.69503"
       y="176.8288"
       id="text1687-1"><tspan
         sodipodi:role="line"
         id="tspan1685-8"
         x="119.69503"
         y="176.8288"
         style="stroke-width:0.42882934">t21[1]</tspan></text>
    <text
       xml:space="preserve"
       style="font-style:normal;font-weight:normal;font-size:11.72450066px;line-height:1.25;font-family:sans-serif;letter-spacing:0px;word-spacing:0px;fill:#000000;fill-opacity:1;stroke:none;stroke-width:0.62809831"
       x="14.38501"
       y="201.12793"
       id="text1737"><tspan
         sodipodi:role="line"
         id="tspan1735"
         x="14.38501"
         y="201.12793"
         style="stroke-width:0.62809831">openSmallSvG</tspan></text>
    <text
       xml:space="preserve"
       style="font-style:normal;font-weight:normal;font-size:9.71182442px;line-height:1.25;font-family:sans-serif;letter-spacing:0px;word-spacing:0px;fill:#a05a2c;fill-opacity:1;stroke:none;stroke-width:0.52027631"
       x="63.403229"
       y="145.72302"
       id="text1741"><tspan
         sodipodi:role="line"
         id="tspan1739"
         x="63.403229"
         y="145.72302"
         style="fill:#a05a2c;stroke-width:0.52027631">f</tspan></text>
    <text
       xml:space="preserve"
       style="font-style:normal;font-weight:normal;font-size:10.43643475px;line-height:1.25;font-family:sans-serif;letter-spacing:0px;word-spacing:0px;fill:#a05a2c;fill-opacity:1;stroke:none;stroke-width:0.55909473"
       x="72.332077"
       y="146.29134"
       id="text1745"><tspan
         sodipodi:role="line"
         id="tspan1743"
         x="72.332077"
         y="146.29134"
         style="fill:#a05a2c;stroke-width:0.55909473">n</tspan></text>
    <text
       xml:space="preserve"
       style="font-style:normal;font-weight:normal;font-size:11.41136742px;line-height:1.25;font-family:sans-serif;letter-spacing:0px;word-spacing:0px;fill:#a05a2c;fill-opacity:1;stroke:none;stroke-width:0.6113233"
       x="82.08741"
       y="145.44951"
       id="text1749"><tspan
         sodipodi:role="line"
         id="tspan1747"
         x="82.08741"
         y="145.44951"
         style="fill:#a05a2c;stroke-width:0.6113233">a</tspan></text>
    <text
       xml:space="preserve"
       style="font-style:normal;font-weight:normal;font-size:10.45616722px;line-height:1.25;font-family:sans-serif;letter-spacing:0px;word-spacing:0px;fill:#a05a2c;fill-opacity:1;stroke:none;stroke-width:0.56015182"
       x="90.705528"
       y="145.72304"
       id="text1753"><tspan
         sodipodi:role="line"
         id="tspan1751"
         x="90.705528"
         y="145.72304"
         style="fill:#a05a2c;stroke-width:0.56015182">m</tspan></text>
    <text
       xml:space="preserve"
       style="font-style:normal;font-weight:normal;font-size:11.09533024px;line-height:1.25;font-family:sans-serif;letter-spacing:0px;word-spacing:0px;fill:#000000;fill-opacity:1;stroke:none;stroke-width:0.59439266"
       x="203.45486"
       y="95.54232"
       id="text1764"><tspan
         sodipodi:role="line"
         id="tspan1762"
         x="203.45486"
         y="95.54232"
         style="stroke-width:0.59439266">openSvG(&quot;index/svgfiles/&quot;+name+&quot;.svg&quot;);</tspan></text>
    <text
       xml:space="preserve"
       style="font-style:normal;font-weight:normal;font-size:12.16595364px;line-height:1.25;font-family:sans-serif;letter-spacing:0px;word-spacing:0px;fill:#917c6f;fill-opacity:1;stroke:none;stroke-width:0.65174758"
       x="112.04688"
       y="146.21346"
       id="text1776"><tspan
         sodipodi:role="line"
         id="tspan1774"
         x="112.04688"
         y="146.21346"
         style="fill:#917c6f;stroke-width:0.65174758">t</tspan></text>
    <text
       xml:space="preserve"
       style="font-style:normal;font-weight:normal;font-size:12.16595364px;line-height:1.25;font-family:sans-serif;letter-spacing:0px;word-spacing:0px;fill:#917c6f;fill-opacity:1;stroke:none;stroke-width:0.65174758"
       x="119.47217"
       y="145.69505"
       id="text1780"><tspan
         sodipodi:role="line"
         id="tspan1778"
         x="119.47217"
         y="145.69505"
         style="fill:#917c6f;stroke-width:0.65174758">x</tspan></text>
    <text
       xml:space="preserve"
       style="font-style:normal;font-weight:normal;font-size:12.16595364px;line-height:1.25;font-family:sans-serif;letter-spacing:0px;word-spacing:0px;fill:#917c6f;fill-opacity:1;stroke:none;stroke-width:0.65174758"
       x="128.58875"
       y="145.88858"
       id="text1784"><tspan
         sodipodi:role="line"
         id="tspan1782"
         x="128.58875"
         y="145.88858"
         style="fill:#917c6f;stroke-width:0.65174758">L</tspan></text>
    <text
       xml:space="preserve"
       style="font-style:normal;font-weight:normal;font-size:12.16595364px;line-height:1.25;font-family:sans-serif;letter-spacing:0px;word-spacing:0px;fill:#917c6f;fill-opacity:1;stroke:none;stroke-width:0.65174758"
       x="138.16127"
       y="144.81"
       id="text1788"><tspan
         sodipodi:role="line"
         id="tspan1786"
         x="138.16127"
         y="144.81"
         style="fill:#917c6f;stroke-width:0.65174758">a</tspan></text>
    <text
       xml:space="preserve"
       style="font-style:normal;font-weight:normal;font-size:12.16595364px;line-height:1.25;font-family:sans-serif;letter-spacing:0px;word-spacing:0px;fill:#917c6f;fill-opacity:1;stroke:none;stroke-width:0.65174758"
       x="147.46539"
       y="146.15623"
       id="text1792"><tspan
         sodipodi:role="line"
         id="tspan1790"
         x="147.46539"
         y="146.15623"
         style="fill:#917c6f;stroke-width:0.65174758">b</tspan></text>
    <text
       xml:space="preserve"
       style="font-style:normal;font-weight:normal;font-size:12.16595364px;line-height:1.25;font-family:sans-serif;letter-spacing:0px;word-spacing:0px;fill:#917c6f;fill-opacity:1;stroke:none;stroke-width:0.65174758"
       x="156.58821"
       y="144.98366"
       id="text1796"><tspan
         sodipodi:role="line"
         id="tspan1794"
         x="156.58821"
         y="144.98366"
         style="fill:#917c6f;stroke-width:0.65174758">e</tspan></text>
    <text
       xml:space="preserve"
       style="font-style:normal;font-weight:normal;font-size:12.16595364px;line-height:1.25;font-family:sans-serif;letter-spacing:0px;word-spacing:0px;fill:#917c6f;fill-opacity:1;stroke:none;stroke-width:0.65174758"
       x="166.87697"
       y="145.52115"
       id="text1800"><tspan
         sodipodi:role="line"
         id="tspan1798"
         x="166.87697"
         y="145.52115"
         style="fill:#917c6f;stroke-width:0.65174758">L</tspan></text>
    <use
       x="0"
       y="0"
       xlink:href="#use1505"
       id="use1557-06-7"
       transform="translate(94.493666,0.63780961)"
       width="100%"
       height="100%" />
    <text
       xml:space="preserve"
       style="font-style:normal;font-weight:normal;font-size:14.05270672px;line-height:1.25;font-family:sans-serif;letter-spacing:0px;word-spacing:0px;fill:#000000;fill-opacity:1;stroke:none;stroke-width:0.75282359"
       x="15.283267"
       y="25.236609"
       id="text1637-9"><tspan
         sodipodi:role="line"
         id="tspan1635-2"
         x="15.283267"
         y="25.236609"
         style="stroke-width:0.75282359"><tspan
           style="fill:#999999;stroke-width:0.75282359"
           id="tspan1639-0">function eOpenSvg</tspan><tspan
           style="fill:#cccccc;stroke-width:0.75282359"
           id="tspan1641-2">(</tspan><tspan
           style="fill:#0000ff;stroke-width:0.75282359"
           id="tspan1645-3">name</tspan><tspan
           style="fill:#b3b3b3;stroke-width:0.75282359"
           id="tspan1643-7">)</tspan></tspan></text>
    <text
       xml:space="preserve"
       style="font-style:normal;font-weight:normal;font-size:11.96418095px;line-height:1.25;font-family:sans-serif;letter-spacing:0px;word-spacing:0px;fill:#000000;fill-opacity:1;stroke:none;stroke-width:0.64093822"
       x="137.31133"
       y="93.873711"
       id="text1637-9-5"
       transform="scale(0.85137905,1.174565)"><tspan
         sodipodi:role="line"
         id="tspan1635-2-9"
         x="137.31133"
         y="93.873711"
         style="stroke-width:0.64093822"><tspan
           style="fill:#0000ff;stroke-width:0.64093822"
           id="tspan1645-3-8">name</tspan><tspan
           style="fill:#b3b3b3;stroke-width:0.64093822"
           id="tspan1643-7-9" /></tspan></text>
    <rect
       style="opacity:1;fill:#f9f9f9;fill-opacity:1;fill-rule:evenodd;stroke:none;stroke-width:0.69484937;stroke-linecap:round;stroke-miterlimit:4;stroke-dasharray:none;stroke-dashoffset:0;stroke-opacity:1;image-rendering:auto"
       id="rect1896"
       width="427.71136"
       height="180.67805"
       x="19.986511"
       y="232.2437"
       inkscape:label="#rect1896aaa">
      <title
         id="title1898">RECTANG222</title>
    </rect>
  </g>
</svg>
