<?xml version="1.0" encoding="UTF-8" standalone="no"?>
<!-- Created with Inkscape (http://www.inkscape.org/) -->

<svg
   xmlns:dc="http://purl.org/dc/elements/1.1/"
   xmlns:cc="http://creativecommons.org/ns#"
   xmlns:rdf="http://www.w3.org/1999/02/22-rdf-syntax-ns#"
   xmlns:svg="http://www.w3.org/2000/svg"
   xmlns="http://www.w3.org/2000/svg"
   xmlns:sodipodi="http://sodipodi.sourceforge.net/DTD/sodipodi-0.dtd"
   xmlns:inkscape="http://www.inkscape.org/namespaces/inkscape"
   width="210mm"
   height="297mm"
   viewBox="0 0 210 297"
   version="1.1"
   id="svg2097"
   inkscape:version="0.92.3 (2405546, 2018-03-11)"
   sodipodi:docname="01edit.svg">
  <defs
     id="defs2091" />
  <sodipodi:namedview
     id="base"
     pagecolor="#ffffff"
     bordercolor="#666666"
     borderopacity="1.0"
     inkscape:pageopacity="0.0"
     inkscape:pageshadow="2"
     inkscape:zoom="0.59248325"
     inkscape:cx="399.37627"
     inkscape:cy="601.40877"
     inkscape:document-units="mm"
     inkscape:current-layer="layer1"
     showgrid="false"
     inkscape:snap-global="false"
     inkscape:window-width="1366"
     inkscape:window-height="700"
     inkscape:window-x="0"
     inkscape:window-y="0"
     inkscape:window-maximized="1" />
  <metadata
     id="metadata2094">
    <rdf:RDF>
      <cc:Work
         rdf:about="">
        <dc:format>image/svg+xml</dc:format>
        <dc:type
           rdf:resource="http://purl.org/dc/dcmitype/StillImage" />
        <dc:title></dc:title>
      </cc:Work>
    </rdf:RDF>
  </metadata>
  <g
     inkscape:label="Layer 1"
     inkscape:groupmode="layer"
     id="layer1">
    <rect
       style="opacity:1;fill:#160808;fill-opacity:1;fill-rule:evenodd;stroke:none;stroke-width:0.78290671;stroke-miterlimit:4;stroke-dasharray:2.34872005, 0.78290668;stroke-dashoffset:0;stroke-opacity:1"
       id="rect4359"
       width="54.734856"
       height="46.853039"
       x="56.335594"
       y="44.530262" />
    <rect
       style="opacity:1;fill:#9d9292;fill-opacity:1;fill-rule:evenodd;stroke:none;stroke-width:0.792;stroke-miterlimit:4;stroke-dasharray:2.37599994, 0.79199998;stroke-dashoffset:0;stroke-opacity:1"
       id="rect4361"
       width="46.634098"
       height="40.065918"
       x="60.057564"
       y="47.81435" />
    <rect
       style="opacity:1;fill:#eaeaea;fill-opacity:1;fill-rule:evenodd;stroke:none;stroke-width:0.792;stroke-miterlimit:4;stroke-dasharray:2.37599994, 0.79199998;stroke-dashoffset:0;stroke-opacity:1"
       id="rect4363"
       width="34.154552"
       height="28.681065"
       x="61.590141"
       y="53.068897" />
    <rect
       style="opacity:1;fill:#bdb6b6;fill-opacity:1;fill-rule:evenodd;stroke:none;stroke-width:1.06309593;stroke-miterlimit:4;stroke-dasharray:3.18928767, 1.06309588;stroke-dashoffset:0;stroke-opacity:1"
       id="rect4365"
       width="19.020502"
       height="24.410673"
       x="67.933479"
       y="56.321278" />
    <rect
       style="opacity:1;fill:#ffffff;fill-opacity:1;fill-rule:evenodd;stroke:#838383;stroke-width:0.36332414;stroke-miterlimit:4;stroke-dasharray:none;stroke-dashoffset:0;stroke-opacity:1"
       id="rect4365-4"
       width="18.533897"
       height="24.600061"
       x="67.416756"
       y="55.167271" />
    <rect
       style="opacity:1;fill:#ffffff;fill-opacity:1;fill-rule:evenodd;stroke:#838383;stroke-width:0.26300001;stroke-miterlimit:4;stroke-dasharray:none;stroke-dashoffset:0;stroke-opacity:1"
       id="rect4382"
       width="42.693188"
       height="1.7515154"
       x="62.028023"
       y="83.501472" />
    <rect
       style="opacity:1;fill:#ffffff;fill-opacity:1;fill-rule:evenodd;stroke:#838383;stroke-width:0.30025429;stroke-miterlimit:4;stroke-dasharray:none;stroke-dashoffset:0;stroke-opacity:1"
       id="rect4384"
       width="8.2829037"
       height="11.178421"
       x="97.295441"
       y="53.306461" />
    <rect
       style="opacity:1;fill:#ffffff;fill-opacity:1;fill-rule:evenodd;stroke:#838383;stroke-width:0.34464869;stroke-miterlimit:4;stroke-dasharray:none;stroke-dashoffset:0;stroke-opacity:1"
       id="rect4384-7"
       width="8.2385092"
       height="14.807756"
       x="97.214195"
       y="66.506172" />
    <path
       style="fill:#ffffff;fill-opacity:1;stroke:#868686;stroke-width:0.26458332px;stroke-linecap:butt;stroke-linejoin:miter;stroke-opacity:1"
       d="m 91.907549,68.920202 -2.090847,-2.088132 -0.0243,2.756083 0.55662,-0.333976 0.22642,1.159166 0.876557,-0.323704 -0.43503,-1.169437 z"
       id="path4401"
       inkscape:connector-curvature="0"
       sodipodi:nodetypes="cccccccc" />
    <path
       style="opacity:1;fill:#9acffb;fill-opacity:0.59116025;fill-rule:evenodd;stroke:#5bd0ff;stroke-width:0.71814996;stroke-miterlimit:4;stroke-dasharray:none;stroke-dashoffset:0;stroke-opacity:0.98342542"
       d="m 46.223332,198.05862 h 74.955418 c 2.96428,0 5.35068,2.38641 5.35068,5.35069 v 20.91632 c 0,2.96428 -2.3864,5.35069 -5.35068,5.35069 H 46.223332 c -2.96428,0 -5.350687,-2.38641 -5.350687,-5.35069 v -20.91632 c 0,-2.96428 2.386407,-5.35069 5.350687,-5.35069 z"
       id="path4405"
       inkscape:connector-curvature="0" />
    <path
       style="fill:#8585f8;fill-opacity:1;stroke:none;stroke-width:0.18505311px;stroke-linecap:butt;stroke-linejoin:miter;stroke-opacity:1"
       d="m 68.025852,62.936591 1.58064,-1.066008 c 0,0 1.83794,1.139526 2.16877,1.029251 0.33083,-0.110277 3.16127,-1.213046 3.16127,-1.213046 l 1.32332,1.029251 2.86719,-0.477866 2.42609,0.624902 1.02925,-0.955733 3.01423,-0.03676 1.65415,1.801186 -2.20553,1.176285 c 0,0 2.31581,2.058499 2.24229,2.205535 -0.0735,0.147035 -1.06601,0.771936 -1.06601,0.771936 l -5.07272,-0.882213 -1.87471,0.661659 -2.79367,-0.661659 -1.76444,0.441106 -1.65414,-0.588142 -2.60988,0.698418 -1.91147,-0.404346 z"
       id="path2737"
       inkscape:connector-curvature="0" />
    <path
       style="opacity:1;fill:#b3b3b3;fill-opacity:0.97058835;fill-rule:evenodd;stroke:#000000;stroke-width:0.29437703;stroke-miterlimit:4;stroke-dasharray:none;stroke-dashoffset:0;stroke-opacity:0"
       d="m 43.942708,199.93344 h 76.428222 v 27.3372 c -7.2555,-3.54706 -13.22934,-2.28277 -20.17439,-0.87933 -5.218412,1.03123 -9.157894,-0.21386 -13.849718,-1.29951 -3.52282,-0.61894 -6.908957,-0.08 -10.564531,1.12318 -5.174612,1.68072 -9.635246,0.93175 -14.87061,-1.33251 -5.692788,-2.42985 -10.89423,-1.09555 -16.968973,2.38817 z"
       id="rect2667"
       inkscape:connector-curvature="0"
       sodipodi:nodetypes="ccccccccc" />
    <text
       xml:space="preserve"
       style="font-style:normal;font-weight:normal;font-size:4.93888855px;line-height:1.25;font-family:sans-serif;letter-spacing:0px;word-spacing:0px;fill:#000000;fill-opacity:1;stroke:none;stroke-width:0.26458332"
       x="37.8563"
       y="119.78148"
       id="text2647"><tspan
         sodipodi:role="line"
         id="tspan2645"
         x="37.8563"
         y="119.78148"
         style="stroke-width:0.26458332">Object</tspan></text>
    <text
       xml:space="preserve"
       style="font-style:normal;font-weight:normal;font-size:4.93888855px;line-height:1.25;font-family:sans-serif;letter-spacing:0px;word-spacing:0px;fill:#000000;fill-opacity:1;stroke:none;stroke-width:0.26458332"
       x="73.060966"
       y="120.77888"
       id="text2651"><tspan
         sodipodi:role="line"
         id="tspan2649"
         x="73.060966"
         y="120.77888"
         style="stroke-width:0.26458332">Object properties</tspan></text>
    <text
       xml:space="preserve"
       style="font-style:normal;font-weight:normal;font-size:4.93888855px;line-height:1.25;font-family:sans-serif;letter-spacing:0px;word-spacing:0px;fill:#000000;fill-opacity:1;stroke:none;stroke-width:0.26458332"
       x="54.686333"
       y="208.70842"
       id="text2655"><tspan
         sodipodi:role="line"
         id="tspan2653"
         x="54.686333"
         y="208.70842"
         style="stroke-width:0.26458332">Interactivity</tspan></text>
    <text
       xml:space="preserve"
       style="font-style:normal;font-weight:normal;font-size:4.93888855px;line-height:1.25;font-family:sans-serif;letter-spacing:0px;word-spacing:0px;fill:#000000;fill-opacity:1;stroke:none;stroke-width:0.26458332"
       x="67.500298"
       y="219.46303"
       id="text2661"><tspan
         sodipodi:role="line"
         id="tspan2659"
         x="67.500298"
         y="219.46303"
         style="stroke-width:0.26458332">onclick</tspan></text>
    <path
       style="fill:none;stroke:#000000;stroke-width:0.26458332px;stroke-linecap:butt;stroke-linejoin:miter;stroke-opacity:1"
       d="m 56.636169,118.19466 13.339193,0.19909 -3.782756,-1.79182 0.199094,4.18094 3.384571,-1.79184"
       id="path2663"
       inkscape:connector-curvature="0" />
    <rect
       style="opacity:1;fill:#e6e6e6;fill-opacity:0.97058835;fill-rule:evenodd;stroke:#000000;stroke-width:0.36300001;stroke-miterlimit:4;stroke-dasharray:none;stroke-dashoffset:0;stroke-opacity:0"
       id="rect2665"
       width="6.5700507"
       height="5.9727731"
       x="46.764309"
       y="204.28011" />
    <rect
       style="opacity:1;fill:#333333;fill-opacity:0.97058835;fill-rule:evenodd;stroke:none;stroke-width:0.27420837;stroke-miterlimit:4;stroke-dasharray:none;stroke-dashoffset:0;stroke-opacity:0"
       id="rect2669"
       width="3.981849"
       height="0.90885139"
       x="47.958862"
       y="206.6692" />
    <rect
       style="opacity:1;fill:#ffffff;fill-opacity:0.97058835;fill-rule:evenodd;stroke:none;stroke-width:0.42214036;stroke-miterlimit:4;stroke-dasharray:none;stroke-dashoffset:0;stroke-opacity:0"
       id="rect2671"
       width="36.120838"
       height="6.9878144"
       x="87.117302"
       y="214.10036" />
    <text
       xml:space="preserve"
       style="font-style:normal;font-weight:normal;font-size:4.93888855px;line-height:1.25;font-family:sans-serif;letter-spacing:0px;word-spacing:0px;fill:#000000;fill-opacity:1;stroke:none;stroke-width:0.26458332"
       x="88.670158"
       y="219.22475"
       id="text2675"><tspan
         sodipodi:role="line"
         id="tspan2673"
         x="88.670158"
         y="219.22475"
         style="stroke-width:0.26458332">fold/bla01</tspan></text>
    <text
       xml:space="preserve"
       style="font-style:normal;font-weight:normal;font-size:4.93888855px;line-height:1.25;font-family:sans-serif;letter-spacing:0px;word-spacing:0px;fill:#000000;fill-opacity:1;stroke:none;stroke-width:0.26458332"
       x="139.97041"
       y="79.838783"
       id="text2697"><tspan
         sodipodi:role="line"
         id="tspan2695"
         x="139.97041"
         y="79.838783"
         style="stroke-width:0.26458332">Draw a rectangle</tspan></text>
    <g
       aria-label="L I N K"
       style="font-style:normal;font-weight:normal;font-size:4.93888855px;line-height:1.25;font-family:sans-serif;letter-spacing:0px;word-spacing:0px;fill:#0000ff;fill-opacity:1;stroke:none;stroke-width:0.26458332"
       id="text2726"
       transform="matrix(0.93896882,0,0,1.0431001,36.475562,-12.297832)">
      <path
         d="m 35.032324,72.301714 h 0.928453 l -0.05256,2.32058 1.682776,0.578124 v 0.701766 h -2.558672 z"
         style="font-weight:bold;fill:#0000ff;stroke-width:0.26458332"
         id="path2728"
         inkscape:connector-curvature="0"
         sodipodi:nodetypes="ccccccc" />
      <path
         d="m 39.894042,72.301714 1.559134,-0.15767 -0.630681,3.75814 h -0.928453 z"
         style="font-weight:bold;fill:#0000ff;stroke-width:0.26458332"
         id="path2730"
         inkscape:connector-curvature="0"
         sodipodi:nodetypes="ccccc" />
      <path
         d="m 42.980504,72.249157 1.509984,0.05256 1.309481,2.469445 v -2.469445 h 1.56346 l -0.683238,3.60047 h -1.036974 l -1.30948,-2.469445 v 2.469445 h -0.880222 z"
         style="font-weight:bold;fill:#0000ff;stroke-width:0.26458332"
         id="path2732"
         inkscape:connector-curvature="0"
         sodipodi:nodetypes="ccccccccccc" />
      <path
         d="m 48.888344,72.1966 1.348908,0.105114 v 1.314304 l 1.65376,-2.312883 0.762629,0.998579 -1.733916,1.704978 1.912372,1.895492 h -1.162375 l -1.43247,-1.418002 v 1.418002 h -0.928454 z"
         style="font-weight:bold;fill:#0000ff;stroke-width:0.26458332"
         id="path2734"
         inkscape:connector-curvature="0"
         sodipodi:nodetypes="cccccccccccc" />
    </g>
    <path
       style="fill:#ff8888;fill-opacity:1;stroke:none;stroke-width:0.18505311px;stroke-linecap:butt;stroke-linejoin:miter;stroke-opacity:1"
       d="m 63.255322,64.234538 h 3.44392 l 0.10129,-1.31679 1.92454,2.02583 -1.82325,1.519373 -0.10129,-1.012914 -3.84908,0.202581 z"
       id="path2754"
       inkscape:connector-curvature="0" />
    <path
       style="fill:#f27a7a;fill-opacity:1;stroke:none;stroke-width:0.1590808px;stroke-linecap:butt;stroke-linejoin:miter;stroke-opacity:1"
       d="m 90.798619,64.349157 h -2.960557 l -0.0871,-1.131978 -1.65443,1.741504 1.56735,1.306129 0.0871,-0.870751 3.308857,0.174148 z"
       id="path2754-2"
       inkscape:connector-curvature="0" />
    <text
       xml:space="preserve"
       style="font-style:normal;font-weight:normal;font-size:4.93888855px;line-height:1.25;font-family:sans-serif;letter-spacing:0px;word-spacing:0px;fill:#000000;fill-opacity:1;stroke:none;stroke-width:0.26458332"
       x="21.22657"
       y="60.366657"
       id="text2809"><tspan
         sodipodi:role="line"
         id="tspan2807"
         x="21.22657"
         y="60.366657"
         style="stroke-width:0.26458332">Create a </tspan><tspan
         sodipodi:role="line"
         x="21.22657"
         y="66.540268"
         style="stroke-width:0.26458332"
         id="tspan4411">masterpiece</tspan></text>
    <path
       style="fill:#b9b9ff;fill-opacity:1;stroke:none;stroke-width:0.26458332px;stroke-linecap:butt;stroke-linejoin:miter;stroke-opacity:1"
       d="m 51.014241,240.1429 -13.991132,7.59518 13.991132,7.19544 0.139022,-2.88529 10.289968,0.66047 -0.17413,-10.25438 -10.011454,0.17412 z"
       id="path2830"
       inkscape:connector-curvature="0"
       sodipodi:nodetypes="cccccccc" />
    <text
       xml:space="preserve"
       style="font-style:normal;font-weight:normal;font-size:4.93888855px;line-height:1.25;font-family:sans-serif;letter-spacing:0px;word-spacing:0px;fill:#7575ea;fill-opacity:1;stroke:none;stroke-width:0.26458332"
       x="43.533264"
       y="249.09363"
       id="text2834"><tspan
         sodipodi:role="line"
         id="tspan2832"
         x="43.533264"
         y="249.09363"
         style="font-weight:bold;fill:#7575ea;fill-opacity:1;stroke-width:0.26458332">BACK</tspan></text>
    <rect
       style="opacity:1;fill:none;fill-opacity:1;fill-rule:evenodd;stroke:#e18585;stroke-width:1.24581528;stroke-miterlimit:4;stroke-dasharray:3.73744573, 1.24581526;stroke-dashoffset:0;stroke-opacity:1"
       id="rect2836"
       width="26.933517"
       height="17.062952"
       x="36.113968"
       y="238.75488"
       onclick="00start" />
    <rect
       style="opacity:1;fill:none;fill-opacity:1;fill-rule:evenodd;stroke:#e18585;stroke-width:1.03846896;stroke-miterlimit:4;stroke-dasharray:3.11540693, 1.03846899;stroke-dashoffset:0;stroke-opacity:1"
       id="rect2836-8"
       width="27.140862"
       height="11.765309"
       x="114.34623"
       y="238.30383"
       onclick="edit/02fname" />
    <path
       style="fill:none;stroke:#000000;stroke-width:0.26458332px;stroke-linecap:butt;stroke-linejoin:miter;stroke-opacity:1"
       d="m 133.6423,241.44973 c -0.59451,-14.43807 -3.76308,-21.23498 -16.87449,-23.19742 l 5.05949,3.0357 1.01189,-3.0357 -6.74598,-0.33729"
       id="path2853"
       inkscape:connector-curvature="0"
       sodipodi:nodetypes="ccccc" />
    <path
       style="fill:none;stroke:#000000;stroke-width:0.26458332px;stroke-linecap:butt;stroke-linejoin:miter;stroke-opacity:1"
       d="m 131.27549,239.84327 c -4.69551,-0.32014 -12.48579,0.42687 -13.01937,2.24104 -0.53358,1.81418 -1.06716,5.12238 9.60445,5.65596 10.67161,0.53358 11.95221,-1.2806 10.67161,-3.20149 -1.28059,-1.92088 -6.40297,-3.73506 -11.31191,-3.62834 -4.90894,0.10671 -9.17758,2.0276 -3.62835,4.26864 5.54924,2.24104 15.26041,1.06717 11.41863,-1.28059 -2.77461,-1.60075 -8.43057,-1.49403 -9.60445,-1.38731"
       id="path2855"
       inkscape:connector-curvature="0"
       sodipodi:nodetypes="ccsccscc" />
    <text
       xml:space="preserve"
       style="font-style:normal;font-weight:normal;font-size:4.93888855px;line-height:1.25;font-family:sans-serif;letter-spacing:0px;word-spacing:0px;fill:#000000;fill-opacity:1;stroke:none;stroke-width:0.26458332"
       x="64.990562"
       y="41.186939"
       id="text3494"><tspan
         sodipodi:role="line"
         id="tspan3492"
         x="64.990562"
         y="41.186939"
         style="stroke-width:0.26458332">in Inkscape</tspan></text>
    <rect
       style="opacity:1;fill:#160808;fill-opacity:1;fill-rule:evenodd;stroke:none;stroke-width:0.78290671;stroke-miterlimit:4;stroke-dasharray:2.34872007, 0.78290669;stroke-dashoffset:0;stroke-opacity:1"
       id="rect4359-6"
       width="54.734856"
       height="46.853039"
       x="134.76863"
       y="83.447624" />
    <rect
       style="opacity:1;fill:#9d9292;fill-opacity:1;fill-rule:evenodd;stroke:none;stroke-width:0.792;stroke-miterlimit:4;stroke-dasharray:2.37599997, 0.79199999;stroke-dashoffset:0;stroke-opacity:1"
       id="rect4361-8"
       width="46.634102"
       height="40.065918"
       x="138.4906"
       y="86.731712" />
    <rect
       style="opacity:1;fill:#eaeaea;fill-opacity:1;fill-rule:evenodd;stroke:none;stroke-width:0.792;stroke-miterlimit:4;stroke-dasharray:2.37599997, 0.79199999;stroke-dashoffset:0;stroke-opacity:1"
       id="rect4363-9"
       width="34.154552"
       height="28.681067"
       x="140.02318"
       y="91.986267" />
    <rect
       style="opacity:1;fill:#bdb6b6;fill-opacity:1;fill-rule:evenodd;stroke:none;stroke-width:1.06309605;stroke-miterlimit:4;stroke-dasharray:3.1892877, 1.06309589;stroke-dashoffset:0;stroke-opacity:1"
       id="rect4365-0"
       width="19.020502"
       height="24.410673"
       x="146.3665"
       y="95.238647" />
    <rect
       style="opacity:1;fill:#ffffff;fill-opacity:1;fill-rule:evenodd;stroke:#838383;stroke-width:0.36332414;stroke-miterlimit:4;stroke-dasharray:none;stroke-dashoffset:0;stroke-opacity:1"
       id="rect4365-4-6"
       width="18.533897"
       height="24.600061"
       x="145.84978"
       y="94.084648" />
    <rect
       style="opacity:1;fill:#ffffff;fill-opacity:1;fill-rule:evenodd;stroke:#838383;stroke-width:0.26300001;stroke-miterlimit:4;stroke-dasharray:none;stroke-dashoffset:0;stroke-opacity:1"
       id="rect4382-8"
       width="42.693188"
       height="1.7515154"
       x="140.46106"
       y="122.41885" />
    <rect
       style="opacity:1;fill:#ffffff;fill-opacity:1;fill-rule:evenodd;stroke:#838383;stroke-width:0.30025429;stroke-miterlimit:4;stroke-dasharray:none;stroke-dashoffset:0;stroke-opacity:1"
       id="rect4384-79"
       width="8.2829037"
       height="11.178421"
       x="175.72847"
       y="92.223839" />
    <rect
       style="opacity:1;fill:#ffffff;fill-opacity:1;fill-rule:evenodd;stroke:#838383;stroke-width:0.34464869;stroke-miterlimit:4;stroke-dasharray:none;stroke-dashoffset:0;stroke-opacity:1"
       id="rect4384-7-0"
       width="8.2385092"
       height="14.807756"
       x="175.64722"
       y="105.42355" />
    <path
       style="fill:#ffffff;fill-opacity:1;stroke:#868686;stroke-width:0.26458332px;stroke-linecap:butt;stroke-linejoin:miter;stroke-opacity:1"
       d="m 171.61161,111.2596 -2.09085,-2.08814 -0.0243,2.75609 0.55662,-0.33398 0.22642,1.15917 0.87656,-0.32371 -0.43503,-1.16943 z"
       id="path4401-3"
       inkscape:connector-curvature="0"
       sodipodi:nodetypes="cccccccc" />
    <path
       style="fill:#8585f8;fill-opacity:1;stroke:none;stroke-width:0.18505313px;stroke-linecap:butt;stroke-linejoin:miter;stroke-opacity:1"
       d="m 146.45887,101.85396 1.58064,-1.066 c 0,0 1.83794,1.13952 2.16877,1.02925 0.33083,-0.11028 3.16127,-1.21305 3.16127,-1.21305 l 1.32332,1.02925 2.86719,-0.47786 2.42609,0.6249 1.02925,-0.95573 3.01423,-0.0368 1.65415,1.80118 -2.20552,1.17629 c 0,0 2.31581,2.0585 2.24228,2.20553 -0.0735,0.14704 -1.06601,0.77194 -1.06601,0.77194 l -5.07272,-0.88222 -1.87471,0.66166 -2.79367,-0.66166 -1.76444,0.44111 -1.65414,-0.58814 -2.60988,0.69842 -1.91147,-0.40435 z"
       id="path2737-3"
       inkscape:connector-curvature="0" />
    <g
       aria-label="L I N K"
       style="font-style:normal;font-weight:normal;font-size:4.93888855px;line-height:1.25;font-family:sans-serif;letter-spacing:0px;word-spacing:0px;fill:#0000ff;fill-opacity:1;stroke:none;stroke-width:0.26458332"
       id="text2726-3"
       transform="matrix(0.93896881,0,0,1.0431001,114.90858,26.61954)">
      <path
         d="m 35.032324,72.301714 h 0.928453 l -0.05256,2.32058 1.682776,0.578124 v 0.701766 h -2.558672 z"
         style="font-weight:bold;fill:#0000ff;stroke-width:0.26458332"
         id="path2728-7"
         inkscape:connector-curvature="0"
         sodipodi:nodetypes="ccccccc" />
      <path
         d="m 39.894042,72.301714 1.559134,-0.15767 -0.630681,3.75814 h -0.928453 z"
         style="font-weight:bold;fill:#0000ff;stroke-width:0.26458332"
         id="path2730-3"
         inkscape:connector-curvature="0"
         sodipodi:nodetypes="ccccc" />
      <path
         d="m 42.980504,72.249157 1.509984,0.05256 1.309481,2.469445 v -2.469445 h 1.56346 l -0.683238,3.60047 h -1.036974 l -1.30948,-2.469445 v 2.469445 h -0.880222 z"
         style="font-weight:bold;fill:#0000ff;stroke-width:0.26458332"
         id="path2732-26"
         inkscape:connector-curvature="0"
         sodipodi:nodetypes="ccccccccccc" />
      <path
         d="m 48.888344,72.1966 1.348908,0.105114 v 1.314304 l 1.65376,-2.312883 0.762629,0.998579 -1.733916,1.704978 1.912372,1.895492 h -1.162375 l -1.43247,-1.418002 v 1.418002 h -0.928454 z"
         style="font-weight:bold;fill:#0000ff;stroke-width:0.26458332"
         id="path2734-5"
         inkscape:connector-curvature="0"
         sodipodi:nodetypes="cccccccccccc" />
    </g>
    <path
       style="fill:#ff8888;fill-opacity:1;stroke:none;stroke-width:0.18505313px;stroke-linecap:butt;stroke-linejoin:miter;stroke-opacity:1"
       d="m 141.68834,103.15191 h 3.44392 l 0.10129,-1.31679 1.92454,2.02583 -1.82325,1.51937 -0.10129,-1.01291 -3.84908,0.20258 z"
       id="path2754-26"
       inkscape:connector-curvature="0" />
    <path
       style="fill:#f27a7a;fill-opacity:1;stroke:none;stroke-width:0.1590808px;stroke-linecap:butt;stroke-linejoin:miter;stroke-opacity:1"
       d="m 169.23164,103.26653 h -2.96055 l -0.0871,-1.13198 -1.65444,1.74151 1.56736,1.30613 0.0871,-0.87076 3.30885,0.17415 z"
       id="path2754-2-5"
       inkscape:connector-curvature="0" />
    <rect
       style="opacity:1;fill:none;fill-opacity:0.97058835;fill-rule:evenodd;stroke:#c31212;stroke-width:0.53118813;stroke-miterlimit:4;stroke-dasharray:1.59356443, 1.59356443;stroke-dashoffset:0;stroke-opacity:1"
       id="rect2657"
       width="28.102139"
       height="8.7104597"
       x="141.9493"
       y="99.542885" />
    <rect
       style="opacity:1;fill:#160808;fill-opacity:1;fill-rule:evenodd;stroke:none;stroke-width:0.78290671;stroke-miterlimit:4;stroke-dasharray:2.3487201, 0.7829067;stroke-dashoffset:0;stroke-opacity:1"
       id="rect4359-6-8"
       width="54.734856"
       height="46.853039"
       x="57.60334"
       y="125.16653" />
    <rect
       style="opacity:1;fill:#9d9292;fill-opacity:1;fill-rule:evenodd;stroke:none;stroke-width:0.792;stroke-miterlimit:4;stroke-dasharray:2.37599999, 0.792;stroke-dashoffset:0;stroke-opacity:1"
       id="rect4361-8-7"
       width="46.634102"
       height="40.065918"
       x="61.32531"
       y="128.45062" />
    <rect
       style="opacity:1;fill:#eaeaea;fill-opacity:1;fill-rule:evenodd;stroke:none;stroke-width:0.792;stroke-miterlimit:4;stroke-dasharray:2.37599999, 0.792;stroke-dashoffset:0;stroke-opacity:1"
       id="rect4363-9-9"
       width="34.154552"
       height="28.681067"
       x="62.857887"
       y="133.70517" />
    <rect
       style="opacity:1;fill:#bdb6b6;fill-opacity:1;fill-rule:evenodd;stroke:none;stroke-width:1.06309617;stroke-miterlimit:4;stroke-dasharray:3.18928774, 1.0630959;stroke-dashoffset:0;stroke-opacity:1"
       id="rect4365-0-6"
       width="19.020502"
       height="24.410673"
       x="69.20121"
       y="136.95755" />
    <rect
       style="opacity:1;fill:#ffffff;fill-opacity:1;fill-rule:evenodd;stroke:#838383;stroke-width:0.36332414;stroke-miterlimit:4;stroke-dasharray:none;stroke-dashoffset:0;stroke-opacity:1"
       id="rect4365-4-6-0"
       width="18.533897"
       height="24.600061"
       x="68.684486"
       y="135.80354" />
    <rect
       style="opacity:1;fill:#ffffff;fill-opacity:1;fill-rule:evenodd;stroke:#838383;stroke-width:0.26300001;stroke-miterlimit:4;stroke-dasharray:none;stroke-dashoffset:0;stroke-opacity:1"
       id="rect4382-8-4"
       width="42.693188"
       height="1.7515154"
       x="63.295769"
       y="164.13777" />
    <rect
       style="opacity:1;fill:#ffffff;fill-opacity:1;fill-rule:evenodd;stroke:#838383;stroke-width:0.30025429;stroke-miterlimit:4;stroke-dasharray:none;stroke-dashoffset:0;stroke-opacity:1"
       id="rect4384-79-1"
       width="8.2829037"
       height="11.178421"
       x="98.563187"
       y="133.94273" />
    <rect
       style="opacity:1;fill:#ffffff;fill-opacity:1;fill-rule:evenodd;stroke:#838383;stroke-width:0.34464869;stroke-miterlimit:4;stroke-dasharray:none;stroke-dashoffset:0;stroke-opacity:1"
       id="rect4384-7-0-0"
       width="8.2385092"
       height="14.807756"
       x="98.481926"
       y="147.14247" />
    <path
       style="fill:#ffffff;fill-opacity:1;stroke:#868686;stroke-width:0.26458332px;stroke-linecap:butt;stroke-linejoin:miter;stroke-opacity:1"
       d="m 94.446334,152.97851 -2.09085,-2.08813 -0.0243,2.75608 0.55662,-0.33398 0.22642,1.15917 0.87656,-0.3237 -0.43504,-1.16944 z"
       id="path4401-3-4"
       inkscape:connector-curvature="0"
       sodipodi:nodetypes="cccccccc" />
    <path
       style="fill:#8585f8;fill-opacity:1;stroke:none;stroke-width:0.18505314px;stroke-linecap:butt;stroke-linejoin:miter;stroke-opacity:1"
       d="m 69.29359,143.57288 1.580641,-1.06601 c 0,0 1.83794,1.13953 2.16877,1.02925 0.330829,-0.11028 3.161269,-1.21305 3.161269,-1.21305 l 1.32332,1.02926 2.86719,-0.47787 2.42609,0.6249 1.029251,-0.95573 3.014229,-0.0368 1.654154,1.80118 -2.205522,1.17629 c 0,0 2.315812,2.0585 2.242282,2.20553 -0.0735,0.14704 -1.066013,0.77194 -1.066013,0.77194 l -5.07272,-0.88221 -1.87471,0.66166 -2.793671,-0.66166 -1.76444,0.4411 -1.654139,-0.58814 -2.609881,0.69842 -1.91147,-0.40435 z"
       id="path2737-3-8"
       inkscape:connector-curvature="0" />
    <g
       aria-label="L I N K"
       style="font-style:normal;font-weight:normal;font-size:4.93888855px;line-height:1.25;font-family:sans-serif;letter-spacing:0px;word-spacing:0px;fill:#0000ff;fill-opacity:1;stroke:none;stroke-width:0.26458332"
       id="text2726-3-7"
       transform="matrix(0.93896881,0,0,1.0431001,37.743299,68.338455)">
      <path
         d="m 35.032324,72.301714 h 0.928453 l -0.05256,2.32058 1.682776,0.578124 v 0.701766 h -2.558672 z"
         style="font-weight:bold;fill:#0000ff;stroke-width:0.26458332"
         id="path2728-7-0"
         inkscape:connector-curvature="0"
         sodipodi:nodetypes="ccccccc" />
      <path
         d="m 39.894042,72.301714 1.559134,-0.15767 -0.630681,3.75814 h -0.928453 z"
         style="font-weight:bold;fill:#0000ff;stroke-width:0.26458332"
         id="path2730-3-8"
         inkscape:connector-curvature="0"
         sodipodi:nodetypes="ccccc" />
      <path
         d="m 42.980504,72.249157 1.509984,0.05256 1.309481,2.469445 v -2.469445 h 1.56346 l -0.683238,3.60047 h -1.036974 l -1.30948,-2.469445 v 2.469445 h -0.880222 z"
         style="font-weight:bold;fill:#0000ff;stroke-width:0.26458332"
         id="path2732-26-6"
         inkscape:connector-curvature="0"
         sodipodi:nodetypes="ccccccccccc" />
      <path
         d="m 48.888344,72.1966 1.348908,0.105114 v 1.314304 l 1.65376,-2.312883 0.762629,0.998579 -1.733916,1.704978 1.912372,1.895492 h -1.162375 l -1.43247,-1.418002 v 1.418002 h -0.928454 z"
         style="font-weight:bold;fill:#0000ff;stroke-width:0.26458332"
         id="path2734-5-2"
         inkscape:connector-curvature="0"
         sodipodi:nodetypes="cccccccccccc" />
    </g>
    <path
       style="fill:#ff8888;fill-opacity:1;stroke:none;stroke-width:0.18505314px;stroke-linecap:butt;stroke-linejoin:miter;stroke-opacity:1"
       d="m 64.523061,144.87082 h 3.443919 l 0.10129,-1.31679 1.92454,2.02583 -1.82325,1.51938 -0.10129,-1.01292 -3.849079,0.20258 z"
       id="path2754-26-4"
       inkscape:connector-curvature="0" />
    <path
       style="fill:#f27a7a;fill-opacity:1;stroke:none;stroke-width:0.1590808px;stroke-linecap:butt;stroke-linejoin:miter;stroke-opacity:1"
       d="m 92.066364,144.98544 h -2.96055 l -0.0871,-1.13197 -1.654447,1.7415 1.567367,1.30613 0.0871,-0.87075 3.30885,0.17415 z"
       id="path2754-2-5-7"
       inkscape:connector-curvature="0" />
    <rect
       style="opacity:1;fill:none;fill-opacity:0.97058835;fill-rule:evenodd;stroke:#c31212;stroke-width:0.53118813;stroke-miterlimit:4;stroke-dasharray:1.59356445, 1.59356445;stroke-dashoffset:0;stroke-opacity:1"
       id="rect2657-9"
       width="28.102139"
       height="8.7104597"
       x="64.784004"
       y="141.26178" />
    <text
       xml:space="preserve"
       style="font-style:normal;font-weight:normal;font-size:4.93888855px;line-height:1.25;font-family:sans-serif;letter-spacing:0px;word-spacing:0px;fill:#000000;fill-opacity:1;stroke:none;stroke-width:0.26458332"
       x="65.091743"
       y="114.56287"
       id="text4544"><tspan
         sodipodi:role="line"
         id="tspan4542"
         x="65.091743"
         y="114.56287"
         style="stroke-width:0.26458332">the rectangle</tspan></text>
    <rect
       style="opacity:1;fill:#160808;fill-opacity:1;fill-rule:evenodd;stroke:none;stroke-width:0.78290671;stroke-miterlimit:4;stroke-dasharray:2.34872012, 0.78290671;stroke-dashoffset:0;stroke-opacity:1"
       id="rect4359-6-8-3"
       width="54.734856"
       height="46.853039"
       x="135.09785"
       y="159.53366" />
    <rect
       style="opacity:1;fill:#9d9292;fill-opacity:1;fill-rule:evenodd;stroke:none;stroke-width:0.792;stroke-miterlimit:4;stroke-dasharray:2.37600002, 0.79200001;stroke-dashoffset:0;stroke-opacity:1"
       id="rect4361-8-7-9"
       width="46.634102"
       height="40.065918"
       x="138.81982"
       y="162.81775" />
    <rect
       style="opacity:1;fill:#eaeaea;fill-opacity:1;fill-rule:evenodd;stroke:none;stroke-width:0.792;stroke-miterlimit:4;stroke-dasharray:2.37600002, 0.79200001;stroke-dashoffset:0;stroke-opacity:1"
       id="rect4363-9-9-2"
       width="34.154552"
       height="28.681067"
       x="140.3524"
       y="168.07231" />
    <rect
       style="opacity:1;fill:#bdb6b6;fill-opacity:1;fill-rule:evenodd;stroke:none;stroke-width:1.06309617;stroke-miterlimit:4;stroke-dasharray:3.18928778, 1.06309591;stroke-dashoffset:0;stroke-opacity:1"
       id="rect4365-0-6-8"
       width="19.020502"
       height="24.410673"
       x="146.69572"
       y="171.32468" />
    <rect
       style="opacity:1;fill:#ffffff;fill-opacity:1;fill-rule:evenodd;stroke:#838383;stroke-width:0.36332414;stroke-miterlimit:4;stroke-dasharray:none;stroke-dashoffset:0;stroke-opacity:1"
       id="rect4365-4-6-0-3"
       width="18.533897"
       height="24.600061"
       x="146.179"
       y="170.17067" />
    <rect
       style="opacity:1;fill:#ffffff;fill-opacity:1;fill-rule:evenodd;stroke:#838383;stroke-width:0.26300001;stroke-miterlimit:4;stroke-dasharray:none;stroke-dashoffset:0;stroke-opacity:1"
       id="rect4382-8-4-0"
       width="42.693188"
       height="1.7515154"
       x="140.79027"
       y="198.5049" />
    <rect
       style="opacity:1;fill:#ffffff;fill-opacity:1;fill-rule:evenodd;stroke:#838383;stroke-width:0.30025429;stroke-miterlimit:4;stroke-dasharray:none;stroke-dashoffset:0;stroke-opacity:1"
       id="rect4384-79-1-1"
       width="8.2829037"
       height="11.178421"
       x="176.05771"
       y="168.30988" />
    <rect
       style="opacity:1;fill:#cccccc;fill-opacity:1;fill-rule:evenodd;stroke:#838383;stroke-width:0.37084308;stroke-miterlimit:4;stroke-dasharray:none;stroke-dashoffset:0;stroke-opacity:1"
       id="rect4384-7-0-0-7"
       width="9.2937822"
       height="15.197512"
       x="175.57358"
       y="181.52269" />
    <path
       style="fill:#ffffff;fill-opacity:1;stroke:#868686;stroke-width:0.26458332px;stroke-linecap:butt;stroke-linejoin:miter;stroke-opacity:1"
       d="m 170.90178,193.92627 -2.09085,-2.08813 -0.0243,2.75608 0.55662,-0.33398 0.22642,1.15917 0.87656,-0.3237 -0.43504,-1.16944 z"
       id="path4401-3-4-8"
       inkscape:connector-curvature="0"
       sodipodi:nodetypes="cccccccc" />
    <path
       style="fill:#8585f8;fill-opacity:1;stroke:none;stroke-width:0.18505315px;stroke-linecap:butt;stroke-linejoin:miter;stroke-opacity:1"
       d="m 146.78808,177.94001 1.58064,-1.06601 c 0,0 1.83794,1.13953 2.16877,1.02925 0.33083,-0.11028 3.16127,-1.21305 3.16127,-1.21305 l 1.32332,1.02926 2.86719,-0.47787 2.42609,0.6249 1.02925,-0.95573 3.01423,-0.0368 1.65416,1.80118 -2.20552,1.17629 c 0,0 2.31581,2.0585 2.24228,2.20553 -0.0735,0.14704 -1.06602,0.77194 -1.06602,0.77194 l -5.07272,-0.88221 -1.87471,0.66166 -2.79367,-0.66166 -1.76444,0.4411 -1.65414,-0.58814 -2.60988,0.69842 -1.91147,-0.40435 z"
       id="path2737-3-8-9"
       inkscape:connector-curvature="0" />
    <g
       aria-label="L I N K"
       style="font-style:normal;font-weight:normal;font-size:4.93888855px;line-height:1.25;font-family:sans-serif;letter-spacing:0px;word-spacing:0px;fill:#0000ff;fill-opacity:1;stroke:none;stroke-width:0.26458332"
       id="text2726-3-7-1"
       transform="matrix(0.93896881,0,0,1.0431001,115.2378,102.70559)">
      <path
         d="m 35.032324,72.301714 h 0.928453 l -0.05256,2.32058 1.682776,0.578124 v 0.701766 h -2.558672 z"
         style="font-weight:bold;fill:#0000ff;stroke-width:0.26458332"
         id="path2728-7-0-5"
         inkscape:connector-curvature="0"
         sodipodi:nodetypes="ccccccc" />
      <path
         d="m 39.894042,72.301714 1.559134,-0.15767 -0.630681,3.75814 h -0.928453 z"
         style="font-weight:bold;fill:#0000ff;stroke-width:0.26458332"
         id="path2730-3-8-4"
         inkscape:connector-curvature="0"
         sodipodi:nodetypes="ccccc" />
      <path
         d="m 42.980504,72.249157 1.509984,0.05256 1.309481,2.469445 v -2.469445 h 1.56346 l -0.683238,3.60047 h -1.036974 l -1.30948,-2.469445 v 2.469445 h -0.880222 z"
         style="font-weight:bold;fill:#0000ff;stroke-width:0.26458332"
         id="path2732-26-6-9"
         inkscape:connector-curvature="0"
         sodipodi:nodetypes="ccccccccccc" />
      <path
         d="m 48.888344,72.1966 1.348908,0.105114 v 1.314304 l 1.65376,-2.312883 0.762629,0.998579 -1.733916,1.704978 1.912372,1.895492 h -1.162375 l -1.43247,-1.418002 v 1.418002 h -0.928454 z"
         style="font-weight:bold;fill:#0000ff;stroke-width:0.26458332"
         id="path2734-5-2-2"
         inkscape:connector-curvature="0"
         sodipodi:nodetypes="cccccccccccc" />
    </g>
    <path
       style="fill:#ff8888;fill-opacity:1;stroke:none;stroke-width:0.18505315px;stroke-linecap:butt;stroke-linejoin:miter;stroke-opacity:1"
       d="m 142.01755,179.23795 h 3.44392 l 0.10129,-1.31679 1.92454,2.02583 -1.82325,1.51938 -0.10129,-1.01292 -3.84908,0.20258 z"
       id="path2754-26-4-5"
       inkscape:connector-curvature="0" />
    <path
       style="fill:#f27a7a;fill-opacity:1;stroke:none;stroke-width:0.1590808px;stroke-linecap:butt;stroke-linejoin:miter;stroke-opacity:1"
       d="m 169.56086,179.35257 h -2.96055 l -0.0871,-1.13197 -1.65445,1.7415 1.56737,1.30613 0.0871,-0.87075 3.30885,0.17415 z"
       id="path2754-2-5-7-7"
       inkscape:connector-curvature="0" />
    <rect
       style="opacity:1;fill:none;fill-opacity:0.97058835;fill-rule:evenodd;stroke:#c31212;stroke-width:0.53118813;stroke-miterlimit:4;stroke-dasharray:1.59356447, 1.59356447;stroke-dashoffset:0;stroke-opacity:1"
       id="rect2657-9-4"
       width="28.102139"
       height="8.7104597"
       x="142.27852"
       y="175.62892" />
    <path
       style="fill:none;stroke:#5bd1ff;stroke-width:1.14779782;stroke-linecap:butt;stroke-linejoin:miter;stroke-miterlimit:4;stroke-dasharray:none;stroke-opacity:0.99215686"
       d="m 122.35446,200.85135 c 13.83362,-13.68326 35.98676,-14.39608 54.25726,-15.84577 l -8.49813,-1.34858 0.98056,3.70859 6.53701,-2.02286"
       id="path4612"
       inkscape:connector-curvature="0"
       sodipodi:nodetypes="ccccc" />
    <rect
       style="opacity:1;fill:#ffffff;fill-opacity:1;fill-rule:evenodd;stroke:none;stroke-width:0.89813834;stroke-miterlimit:4;stroke-dasharray:none;stroke-dashoffset:0;stroke-opacity:0.99215686"
       id="rect4614"
       width="5.0308681"
       height="1.2227805"
       x="178.92253"
       y="182.59975" />
    <rect
       style="opacity:1;fill:#ffffff;fill-opacity:1;fill-rule:evenodd;stroke:none;stroke-width:0.89813834;stroke-miterlimit:4;stroke-dasharray:none;stroke-dashoffset:0;stroke-opacity:0.99215686"
       id="rect4614-9"
       width="5.0308681"
       height="1.2227805"
       x="178.8876"
       y="184.57365" />
    <rect
       style="opacity:1;fill:#ffffff;fill-opacity:1;fill-rule:evenodd;stroke:none;stroke-width:0.89813834;stroke-miterlimit:4;stroke-dasharray:none;stroke-dashoffset:0;stroke-opacity:0.99215686"
       id="rect4614-94"
       width="5.0308681"
       height="1.2227805"
       x="178.85266"
       y="186.59999" />
    <rect
       style="opacity:1;fill:#ffffff;fill-opacity:1;fill-rule:evenodd;stroke:none;stroke-width:0.89813834;stroke-miterlimit:4;stroke-dasharray:none;stroke-dashoffset:0;stroke-opacity:0.99215686"
       id="rect4614-5"
       width="5.0308681"
       height="1.2227805"
       x="178.78279"
       y="188.48656" />
    <rect
       style="opacity:1;fill:#ffffff;fill-opacity:1;fill-rule:evenodd;stroke:none;stroke-width:0.89813834;stroke-miterlimit:4;stroke-dasharray:none;stroke-dashoffset:0;stroke-opacity:0.99215686"
       id="rect4614-93"
       width="5.0308681"
       height="1.2227805"
       x="178.85266"
       y="190.37314" />
    <path
       style="opacity:1;fill:#b7ffc3;fill-opacity:1;fill-rule:evenodd;stroke:none;stroke-width:1.0699321;stroke-miterlimit:4;stroke-dasharray:none;stroke-dashoffset:0;stroke-opacity:0.99215686"
       d="m 81.118064,19.313784 50.821506,0 3.04538,3.387409 -3.04538,3.277924 -50.821506,0 -3.20567,-3.11764 z"
       id="rect5362"
       inkscape:connector-curvature="0"
       sodipodi:nodetypes="ccccccc" />
    <text
       xml:space="preserve"
       style="font-style:normal;font-weight:normal;font-size:4.93888855px;line-height:1.25;font-family:sans-serif;letter-spacing:0px;word-spacing:0px;fill:#000000;fill-opacity:1;stroke:none;stroke-width:0.26458332"
       x="83.598671"
       y="24.75387"
       id="text5360"><tspan
         sodipodi:role="line"
         id="tspan5358"
         x="83.598671"
         y="24.75387"
         style="stroke-width:0.26458332">svgfiles/edit/01edit</tspan></text>
  </g>
</svg>
