<?xml version="1.0" encoding="UTF-8" standalone="no"?>
<!-- Created with Inkscape (http://www.inkscape.org/) -->

<svg
   xmlns:dc="http://purl.org/dc/elements/1.1/"
   xmlns:cc="http://creativecommons.org/ns#"
   xmlns:rdf="http://www.w3.org/1999/02/22-rdf-syntax-ns#"
   xmlns:svg="http://www.w3.org/2000/svg"
   xmlns="http://www.w3.org/2000/svg"
   xmlns:sodipodi="http://sodipodi.sourceforge.net/DTD/sodipodi-0.dtd"
   xmlns:inkscape="http://www.inkscape.org/namespaces/inkscape"
   width="210mm"
   height="297mm"
   viewBox="0 0 210 297"
   version="1.1"
   id="svg8"
   inkscape:version="0.92.3 (2405546, 2018-03-11)"
   sodipodi:docname="02filename.svg">
  <defs
     id="defs2" />
  <sodipodi:namedview
     id="base"
     pagecolor="#ffffff"
     bordercolor="#666666"
     borderopacity="1.0"
     inkscape:pageopacity="0.0"
     inkscape:pageshadow="2"
     inkscape:zoom="0.37666016"
     inkscape:cx="153.75681"
     inkscape:cy="560"
     inkscape:document-units="mm"
     inkscape:current-layer="layer1"
     showgrid="false"
     inkscape:window-width="1366"
     inkscape:window-height="700"
     inkscape:window-x="0"
     inkscape:window-y="0"
     inkscape:window-maximized="1" />
  <metadata
     id="metadata5">
    <rdf:RDF>
      <cc:Work
         rdf:about="">
        <dc:format>image/svg+xml</dc:format>
        <dc:type
           rdf:resource="http://purl.org/dc/dcmitype/StillImage" />
        <dc:title></dc:title>
      </cc:Work>
    </rdf:RDF>
  </metadata>
  <g
     inkscape:label="Layer 1"
     inkscape:groupmode="layer"
     id="layer1">
    <path
       style="fill:none;stroke:#000000;stroke-width:0.26458332px;stroke-linecap:butt;stroke-linejoin:miter;stroke-opacity:1"
       d="m 39.336964,53.251316 c 12.761915,-6.380956 -0.250066,0.680366 5.619564,-3.512227 1.110999,-0.79357 2.291059,-1.496753 3.51223,-2.107337 1.594962,-0.797481 3.278079,-1.404893 4.91712,-2.107338 1.639041,-0.702445 3.273639,-1.415346 4.91712,-2.107337 8.419586,-3.545089 6.878031,-3.417438 14.751362,-4.91712 2.809782,-0.468297 5.619565,-0.936596 8.429347,-1.404893 2.575637,0 5.179766,0.382072 7.726905,0 17.504318,-2.625645 -3.003016,-2.107337 11.239128,-2.107337 0.70245,0 1.71769,-0.58447 2.10734,0 0.41072,0.616088 -0.42745,1.419855 -0.70244,2.107337 -0.47886,1.197147 -2.60833,4.682086 -2.809789,4.91712 -0.54942,0.640993 -1.466344,0.855472 -2.107337,1.404893 -1.005668,0.862002 -1.873187,1.873189 -2.809782,2.809782 -1.404893,1.404893 -2.809783,2.809785 -4.214675,4.214675 -1.40489,1.404892 -2.652403,2.987177 -4.214675,4.214675 -1.736939,1.364739 -3.814921,2.238362 -5.619565,3.51223 -2.181063,1.539573 -4.140949,3.377546 -6.322012,4.91712 -1.804644,1.273865 -3.803383,2.254869 -5.619568,3.512227 -1.232696,0.853408 -2.360445,1.849966 -3.512227,2.809785 -4.861176,4.05098 -3.763494,3.061046 -7.024457,6.322009 -0.936596,0.936596 -1.937565,1.812962 -2.809782,2.809785 -2.77607,3.172648 -1.217825,2.348389 -4.214675,4.91712 -6.307894,5.406766 0.311951,-1.014399 -4.917123,4.214675 -0.940675,0.940679 -2.138243,1.862886 -1.40489,2.107338 2.19954,0.733178 3.979471,-1.063641 5.619565,-2.107338 1.424498,-0.906499 2.766825,-1.941073 4.214675,-2.809782 11.265993,-6.759596 1.602187,-0.801095 11.239132,-5.619568 1.68847,-0.844235 3.25986,-1.905822 4.91712,-2.809782 0.919284,-0.501428 1.873189,-0.936596 2.809785,-1.404892 0.468297,-0.234149 0.908187,-0.536877 1.40489,-0.702445 1.617152,-0.539052 3.359412,-0.712576 4.917122,-1.404893 0.605192,-0.268973 0.789985,-1.158928 1.40489,-1.40489 0.652206,-0.260882 1.404893,0 2.107337,0 0.702445,0 1.404893,0 2.107338,0 0.468297,0 0.960625,-0.14809 1.404892,0 0.496703,0.165566 0.969254,0.41202 1.40489,0.702445 0.297741,0.198493 1.962021,1.816701 2.107338,2.107338 0.104714,0.209428 -0.07404,0.480311 0,0.702445 0.165568,0.496704 0.536879,0.908187 0.702447,1.404892 0.07404,0.222134 0,0.468297 0,0.702445 0,1.639041 0,3.278082 0,4.91712 0,0.702447 0,1.404892 0,2.107337 0,0.936596 0.203174,1.895494 0,2.809785 -0.760216,3.420965 -1.311849,3.419184 -3.51223,5.619565 -1.873189,1.873189 -3.500294,4.030112 -5.619567,5.619567 -1.967431,1.475574 -15.346219,6.973003 -15.453804,7.024453 -17.606772,9.78154 4.573995,-2.03288 -12.644025,5.61957 -2.107337,1.17074 -4.214675,2.34148 -6.322012,3.51223 -1.170742,0.23415 -2.414836,0.23213 -3.51223,0.70244 -0.608724,0.26089 -0.936593,1.87319 -1.40489,1.4049 -0.523573,-0.52358 0.178874,-1.58377 0.702445,-2.10734 0.331137,-0.33114 0.9413,0.0662 1.404892,0 1.181929,-0.16885 2.444346,-0.16851 3.512228,-0.70245 1.341001,-0.6705 2.171231,-2.13928 3.51223,-2.80978 1.524664,-0.76233 3.268617,-0.97107 4.917119,-1.40489 2.800898,-0.73708 5.658575,-1.26406 8.42935,-2.10734 9.958917,-3.03097 5.991789,-3.01151 16.858697,-5.61957 2.769886,-0.66477 5.651645,-0.77359 8.42935,-1.40489 4.640267,-0.751703 8.805111,-3.146116 13.346473,-4.21467 1.83758,-0.432374 3.81141,-0.160002 5.61956,-0.702448 0.42204,-0.126608 1.67175,-2.542921 2.80979,-1.40489 0.33113,0.331134 0,0.936594 0,1.40489 0,0.234149 0.10471,0.493017 0,0.702448 -0.37756,0.755105 -0.98604,1.374336 -1.4049,2.107337 -1.48381,2.596673 -1.27374,3.381083 -3.51222,5.619563 -4.37187,4.37187 -5.16999,3.5528 -10.536691,7.72691 -2.225596,1.73101 -4.052139,3.94702 -6.322012,5.61956 -2.198299,1.6198 -4.715751,2.75654 -7.024458,4.21468 -14.819352,9.35959 0.402622,0.43161 -10.536687,6.32201 -1.662123,0.89499 -3.316298,1.80927 -4.917119,2.80978 -0.280803,0.1755 -0.381196,0.62213 -0.702445,0.70245 -0.681474,0.17036 -1.425866,-0.17037 -2.107338,0 -0.321249,0.0803 -0.388302,0.59773 -0.702445,0.70244 -0.444267,0.14809 -0.950576,-0.11358 -1.404892,0 -0.488895,0.12223 -1.801315,0.79285 -2.107338,1.40489 -0.446304,0.89261 0.788538,1.34326 1.404893,1.4049 1.863891,0.18638 3.746375,0 5.619565,0 4.795157,0 8.557767,0.20968 13.346469,-0.70245 2.622555,-0.49953 5.109043,-1.58377 7.726905,-2.10734 2.07913,-0.41582 4.295468,-0.0789 6.322009,-0.70244 1.118974,-0.3443 1.857111,-1.42686 2.809785,-2.10734 0.686981,-0.4907 1.35223,-1.02734 2.107338,-1.40489 0.419801,-0.2099 1.404891,0.13128 1.404891,0.70244 0,1.4718 -1.170743,1.57214 -2.107339,2.10734 -1.18542,0.67738 -2.31363,1.45356 -3.512227,2.10734 -8.290843,4.52228 0.230225,-0.39972 -10.536687,4.21467 -1.254916,0.53782 -2.332903,1.4194 -3.51223,2.10734 -1.630611,0.95119 -3.181988,2.06616 -4.91712,2.80978 -1.566799,0.67149 -3.299968,0.86584 -4.91712,1.4049 -7.112232,2.37074 -0.202186,0.36185 -6.322012,2.80978 -1.722636,0.68905 0.437594,-1.14004 -1.40489,0.70244"
       id="path815"
       inkscape:connector-curvature="0" />
  </g>
</svg>
