<?xml version="1.0" encoding="UTF-8" standalone="no"?>
<!-- Created with Inkscape (http://www.inkscape.org/) -->

<svg
   xmlns:dc="http://purl.org/dc/elements/1.1/"
   xmlns:cc="http://creativecommons.org/ns#"
   xmlns:rdf="http://www.w3.org/1999/02/22-rdf-syntax-ns#"
   xmlns:svg="http://www.w3.org/2000/svg"
   xmlns="http://www.w3.org/2000/svg"
   xmlns:sodipodi="http://sodipodi.sourceforge.net/DTD/sodipodi-0.dtd"
   xmlns:inkscape="http://www.inkscape.org/namespaces/inkscape"
   width="210mm"
   height="297mm"
   viewBox="0 0 210 297"
   version="1.1"
   id="svg3490"
   inkscape:version="0.92.1 r15371"
   sodipodi:docname="vtools01.svg">
  <sodipodi:namedview
     id="base"
     pagecolor="#ffffff"
     bordercolor="#666666"
     borderopacity="1.0"
     inkscape:pageopacity="0.0"
     inkscape:pageshadow="2"
     inkscape:zoom="0.69872902"
     inkscape:cx="553.35374"
     inkscape:cy="696.51893"
     inkscape:document-units="mm"
     inkscape:current-layer="layer1"
     showgrid="false"
     inkscape:window-width="1366"
     inkscape:window-height="705"
     inkscape:window-x="-8"
     inkscape:window-y="-8"
     inkscape:window-maximized="1"
     inkscape:snap-global="false" />
  <defs
     id="defs3484" />
  <metadata
     id="metadata3487">
    <rdf:RDF>
      <cc:Work
         rdf:about="">
        <dc:format>image/svg+xml</dc:format>
        <dc:type
           rdf:resource="http://purl.org/dc/dcmitype/StillImage" />
        <dc:title />
      </cc:Work>
    </rdf:RDF>
  </metadata>
  <g
     id="layer1"
     inkscape:groupmode="layer"
     inkscape:label="Layer 1"
     style="display:inline">
    <path
       style="opacity:1;fill:#b6d8fd;fill-opacity:0.99476439;fill-rule:evenodd;stroke:none;stroke-width:3.15590549;stroke-miterlimit:4;stroke-dasharray:6.31181087, 6.31181087000000041;stroke-dashoffset:0;stroke-opacity:1"
       d="M 82.902344 278.73242 L 82.902344 333.24219 L 98.800781 333.24219 L 98.800781 351.41406 L 87.445312 351.41406 L 87.445312 377.5332 L 98.800781 377.5332 L 98.800781 399.11133 L 94.259766 399.11133 L 94.259766 426.36523 L 148.76953 426.36523 L 148.76953 417.28125 L 206.6875 417.28125 L 206.6875 425.23047 L 244.16406 425.23047 L 244.16406 417.28125 L 295.26953 417.28125 L 295.26953 426.36719 L 340.69531 426.36719 L 340.69531 397.97461 L 337.28711 397.97461 L 337.28711 383.21094 L 349.7793 383.21094 L 349.7793 348.00586 L 337.28711 348.00586 L 337.28711 321.88672 L 355.45898 321.88672 L 355.45898 283.27344 L 294.13281 283.27344 L 294.13281 298.03711 L 247.57227 298.03711 L 247.57227 283.27344 L 196.4668 283.27344 L 196.4668 298.03711 L 153.3125 298.03711 L 153.3125 278.73242 L 82.902344 278.73242 z "
       transform="scale(0.26458333)"
       id="rect848" />
    <path
       style="opacity:1;fill:#efc260;fill-opacity:0.66492148;fill-rule:evenodd;stroke:none;stroke-width:0.83499998;stroke-miterlimit:4;stroke-dasharray:none;stroke-dashoffset:0;stroke-opacity:1"
       d="m 112.00601,85.354686 v 8.74199 H 97.745371 l 0,87.962324 c 0,6.09456 4.906329,11.00088 11.000889,11.00088 l 79.55549,0 c 6.09457,0 11.00088,-4.90632 11.00088,-11.00088 l 0,-85.703434 c 0,-6.09457 -4.90631,-11.00088 -11.00088,-11.00088 z"
       id="rect4066"
       inkscape:connector-curvature="0"
       sodipodi:nodetypes="cccssssssc" />
    <path
       style="opacity:1;fill:#b7ffc3;fill-opacity:1;fill-rule:evenodd;stroke:none;stroke-width:1.0699321;stroke-miterlimit:4;stroke-dasharray:none;stroke-dashoffset:0;stroke-opacity:0.99215686"
       d="m 96.527352,13.881466 h 50.821498 l 3.04538,3.387411 -3.04538,3.27792 H 96.527352 l -3.20567,-3.117641 z"
       id="rect5362"
       inkscape:connector-curvature="0"
       sodipodi:nodetypes="ccccccc" />
    <rect
       style="opacity:1;fill:#ffffff;fill-opacity:0.66492148;fill-rule:evenodd;stroke:none;stroke-width:0.33500001;stroke-miterlimit:4;stroke-dasharray:1.00499999, 1.00499999;stroke-dashoffset:0;stroke-opacity:1"
       id="rect5657"
       width="35.669601"
       height="8.5744228"
       x="116.61214"
       y="80.92453"
       ry="4.2872114" />
    <text
       xml:space="preserve"
       style="font-style:normal;font-weight:normal;font-size:4.93888855px;line-height:1.25;font-family:sans-serif;letter-spacing:0px;word-spacing:0px;fill:#000000;fill-opacity:1;stroke:none;stroke-width:0.26458332"
       x="31.549774"
       y="87.269104"
       id="text834"><tspan
         sodipodi:role="line"
         x="31.549774"
         y="87.269104"
         style="stroke-width:0.26458332"
         id="tspan836">all &quot;v_tools&quot; modules</tspan><tspan
         sodipodi:role="line"
         x="31.549774"
         y="93.442719"
         style="stroke-width:0.26458332"
         id="tspan842">created</tspan><tspan
         sodipodi:role="line"
         x="31.549774"
         y="99.616325"
         style="stroke-width:0.26458332"
         id="tspan844">with</tspan><tspan
         sodipodi:role="line"
         x="31.549774"
         y="105.78993"
         style="stroke-width:0.26458332"
         id="tspan840">a <tspan
   style="font-weight:bold"
   id="tspan869">template</tspan></tspan></text>
    <path
       style="fill:none;stroke:#7892ff;stroke-width:0.565;stroke-linecap:butt;stroke-linejoin:miter;stroke-opacity:1;stroke-miterlimit:4;stroke-dasharray:none"
       d="m 86.671207,98.229895 20.001043,7.442255 -3.10093,-2.94589 -1.39543,3.10093 2.9459,-0.15504"
       id="path871"
       inkscape:connector-curvature="0" />
    <path
       style="display:inline;fill:none;stroke:#7892ff;stroke-width:0.56500006;stroke-linecap:butt;stroke-linejoin:miter;stroke-miterlimit:4;stroke-dasharray:none;stroke-opacity:1"
       d="m 86.888928,104.49394 17.810812,11.75601 -2.35772,-3.56864 -2.05802,2.70694 2.90513,0.51248"
       id="path871-3"
       inkscape:connector-curvature="0" />
    <path
       style="display:inline;fill:none;stroke:#7892ff;stroke-width:0.63018823;stroke-linecap:butt;stroke-linejoin:miter;stroke-miterlimit:4;stroke-dasharray:none;stroke-opacity:1"
       d="m 86.269923,111.86856 19.992137,14.05715 -2.29888,-3.84684 -3.01226,2.3877 3.50361,0.90624"
       id="path871-6"
       inkscape:connector-curvature="0" />
    <path
       style="display:inline;fill:none;stroke:#7892ff;stroke-width:0.63018823;stroke-linecap:butt;stroke-linejoin:miter;stroke-miterlimit:4;stroke-dasharray:none;stroke-opacity:1"
       d="m 72.289206,107.32619 34.566544,28.47651 -2.29888,-3.84684 -3.01226,2.3877 3.50361,0.90624"
       id="path871-6-7"
       inkscape:connector-curvature="0"
       sodipodi:nodetypes="ccccc" />
    <path
       style="display:inline;fill:none;stroke:#7892ff;stroke-width:0.68666589;stroke-linecap:butt;stroke-linejoin:miter;stroke-miterlimit:4;stroke-dasharray:none;stroke-opacity:1"
       d="m 64.791631,107.90927 42.767709,49.50523 -1.78332,-4.21777 -4.06757,1.74883 3.87279,1.57353"
       id="path871-6-7-5"
       inkscape:connector-curvature="0"
       sodipodi:nodetypes="ccccc" />
    <path
       style="opacity:1;fill:#b6d8fd;fill-opacity:0.52356023;fill-rule:evenodd;stroke:#7892ff;stroke-width:0.56499988;stroke-miterlimit:4;stroke-dasharray:none;stroke-dashoffset:0;stroke-opacity:0.40314134"
       d="m 232.16597,147.23139 a 32.33792,32.33792 0 0 0 -7.20731,1.81901 l 0.0961,5.78724 a 26.994863,26.994863 0 0 0 -3.44113,1.92753 l -4.98987,-2.99206 a 32.33792,32.33792 0 0 0 -5.22656,5.17126 l 2.95589,4.92941 a 26.994863,26.994863 0 0 0 -2.03915,3.53312 l -5.80068,-0.0961 a 32.33792,32.33792 0 0 0 -1.90066,7.06365 l 5.03845,2.7988 a 26.994863,26.994863 0 0 0 -0.10335,2.06189 26.994863,26.994863 0 0 0 0.0873,2.07067 l -5.03638,2.79725 a 32.33792,32.33792 0 0 0 1.89601,7.05642 l 5.80326,-0.0961 a 26.994863,26.994863 0 0 0 2.06809,3.5109 l -2.97708,4.96507 a 32.33792,32.33792 0 0 0 5.25963,5.14284 l 4.963,-2.97604 a 26.994863,26.994863 0 0 0 3.4432,1.92133 l -0.0956,5.76089 a 32.33792,32.33792 0 0 0 7.2068,1.84949 l 2.82515,-5.08547 a 26.994863,26.994863 0 0 0 1.55133,0.0775 26.994863,26.994863 0 0 0 2.21123,-0.10438 l 2.79776,5.03638 a 32.33792,32.33792 0 0 0 7.24452,-2.02675 l -0.0961,-5.80326 a 26.994863,26.994863 0 0 0 3.0794,-1.84692 l 4.97592,2.98328 a 32.33792,32.33792 0 0 0 5.30976,-5.43894 l -2.98328,-4.97489 a 26.994863,26.994863 0 0 0 1.69447,-3.0024 l 5.79964,0.0961 a 32.33792,32.33792 0 0 0 1.94872,-7.39852 l -5.07204,-2.8174 a 26.994863,26.994863 0 0 0 0.0847,-1.69705 26.994863,26.994863 0 0 0 -0.0605,-1.71049 l 5.05189,-2.80655 a 32.33792,32.33792 0 0 0 -1.93322,-7.39645 l -5.80378,0.0961 a 26.994863,26.994863 0 0 0 -1.70584,-3.0086 l 2.99207,-4.98988 a 32.33792,32.33792 0 0 0 -5.34386,-5.40535 l -4.92942,2.95589 a 26.994863,26.994863 0 0 0 -3.10472,-1.80402 l 0.0966,-5.83996 a 32.33792,32.33792 0 0 0 -7.25537,-1.99988 l -2.79105,5.0245 a 26.994863,26.994863 0 0 0 -2.20761,-0.11058 26.994863,26.994863 0 0 0 -1.56373,0.0553 z"
       id="path924"
       inkscape:connector-curvature="0" />
    <text
       xml:space="preserve"
       style="font-style:normal;font-weight:normal;font-size:4.93888855px;line-height:1.25;font-family:sans-serif;letter-spacing:0px;word-spacing:0px;fill:#000000;fill-opacity:1;stroke:none;stroke-width:0.26458332"
       x="213.25943"
       y="170.799"
       id="text947"><tspan
         sodipodi:role="line"
         id="tspan945"
         x="213.25943"
         y="170.799"
         style="stroke-width:0.26458332">&quot;v_tools&quot; modules</tspan><tspan
         sodipodi:role="line"
         x="213.25943"
         y="176.97261"
         style="stroke-width:0.26458332"
         id="tspan949">being uploaded by</tspan></text>
    <text
       xml:space="preserve"
       style="font-style:normal;font-weight:normal;font-size:4.93888855px;line-height:1.25;font-family:sans-serif;letter-spacing:0px;word-spacing:0px;fill:#000000;fill-opacity:1;stroke:none;stroke-width:0.26458332"
       x="212.58456"
       y="184.97133"
       id="text953"><tspan
         sodipodi:role="line"
         id="tspan951"
         x="212.58456"
         y="184.97133"
         style="font-weight:bold;stroke-width:0.26458332">js/menuha190324.js</tspan></text>
    <text
       xml:space="preserve"
       style="font-style:normal;font-weight:normal;font-size:4.93888855px;line-height:1.25;font-family:sans-serif;letter-spacing:0px;word-spacing:0px;fill:#000000;fill-opacity:1;stroke:none;stroke-width:0.26458332"
       x="216.97121"
       y="191.72002"
       id="text957"><tspan
         sodipodi:role="line"
         id="tspan955"
         x="216.97121"
         y="191.72002"
         style="stroke-width:0.26458332">script</tspan></text>
    <path
       style="display:inline;fill:none;stroke:#7892ff;stroke-width:0.56500006;stroke-linecap:butt;stroke-linejoin:miter;stroke-miterlimit:4;stroke-dasharray:none;stroke-opacity:1"
       d="m 224.82464,147.01085 c -12.30435,-27.73455 -55.30863,-38.06697 -93.251,-40.12167 l 3.64355,2.24022 0.72334,-3.32262 -2.85001,0.76147"
       id="path871-5"
       inkscape:connector-curvature="0"
       sodipodi:nodetypes="ccccc" />
    <path
       style="display:inline;fill:none;stroke:#7892ff;stroke-width:0.56500006;stroke-linecap:butt;stroke-linejoin:miter;stroke-miterlimit:4;stroke-dasharray:none;stroke-opacity:1"
       d="m 218.01029,151.85176 c -15.87967,-17.95596 -37.89982,-32.73581 -84.76363,-34.6655 l 3.64355,2.24022 0.72334,-3.32262 -2.85001,0.76147"
       id="path871-5-6"
       inkscape:connector-curvature="0"
       sodipodi:nodetypes="ccccc" />
    <path
       style="display:inline;fill:none;stroke:#7892ff;stroke-width:0.56500006;stroke-linecap:butt;stroke-linejoin:miter;stroke-miterlimit:4;stroke-dasharray:none;stroke-opacity:1"
       d="m 208.45724,156.31468 c -19.06215,-19.19586 -42.40299,-29.24095 -68.7993,-30.01766 l 3.64355,2.24022 0.72334,-3.32262 -2.85001,0.76147"
       id="path871-5-2"
       inkscape:connector-curvature="0"
       sodipodi:nodetypes="ccccc" />
    <path
       style="display:inline;fill:none;stroke:#7892ff;stroke-width:0.56500006;stroke-linecap:butt;stroke-linejoin:miter;stroke-miterlimit:4;stroke-dasharray:none;stroke-opacity:1"
       d="M 206.90351,162.66686 C 191.66448,149.8383 172.31187,139.23329 137.29589,137.09497 l 3.64355,2.24022 0.72334,-3.32262 -2.85001,0.76147"
       id="path871-5-9"
       inkscape:connector-curvature="0"
       sodipodi:nodetypes="ccccc" />
    <path
       style="display:inline;fill:none;stroke:#7892ff;stroke-width:0.56500006;stroke-linecap:butt;stroke-linejoin:miter;stroke-miterlimit:4;stroke-dasharray:none;stroke-opacity:1"
       d="m 202.3305,170.59479 c -14.73207,-9.48652 -38.13601,-13.06439 -58.32027,-13.15848 l 3.91563,1.721 0.26225,-3.39031 -2.71913,1.144"
       id="path871-5-1"
       inkscape:connector-curvature="0"
       sodipodi:nodetypes="ccccc" />
    <rect
       style="opacity:1;fill:#f83535;fill-opacity:0.3018868;fill-rule:evenodd;stroke:#ff0599;stroke-width:0.86500002;stroke-linecap:round;stroke-linejoin:round;stroke-miterlimit:4;stroke-dasharray:0.86500002, 2.59500004999999990;stroke-dashoffset:0;stroke-opacity:1"
       id="rect6073"
       width="35.363342"
       height="8.9338961"
       x="34.618851"
       y="101.19876"
       onclick="prog/vtool11" />
  </g>
  <g
     inkscape:groupmode="layer"
     id="layer2"
     inkscape:label="TEXT"
     style="display:inline">
    <text
       xml:space="preserve"
       style="font-style:normal;font-weight:normal;font-size:4.93888855px;line-height:1.25;font-family:sans-serif;letter-spacing:0px;word-spacing:0px;fill:#000000;fill-opacity:1;stroke:none;stroke-width:0.26458332"
       x="99.00795"
       y="19.321548"
       id="text5360"><tspan
         sodipodi:role="line"
         id="tspan5358"
         x="99.00795"
         y="19.321548"
         style="stroke-width:0.26458332">prog/vtools01.svg</tspan></text>
    <text
       xml:space="preserve"
       style="font-style:normal;font-weight:normal;font-size:4.93888855px;line-height:1.25;font-family:sans-serif;letter-spacing:0px;word-spacing:0px;display:inline;fill:#000000;fill-opacity:1;stroke:none;stroke-width:0.26458332"
       x="108.03773"
       y="107.33375"
       id="text5643"><tspan
         sodipodi:role="line"
         id="tspan5641"
         x="108.03773"
         y="107.33375"
         style="stroke-width:0.26458332">draw.js</tspan></text>
    <text
       xml:space="preserve"
       style="font-style:normal;font-weight:normal;font-size:4.93888855px;line-height:1.25;font-family:sans-serif;letter-spacing:0px;word-spacing:0px;display:inline;fill:#000000;fill-opacity:1;stroke:none;stroke-width:0.26458332"
       x="107.35178"
       y="117.96604"
       id="text5647"><tspan
         sodipodi:role="line"
         id="tspan5645"
         x="107.35178"
         y="117.96604"
         style="stroke-width:0.26458332">golink.js</tspan></text>
    <text
       xml:space="preserve"
       style="font-style:normal;font-weight:normal;font-size:4.93888855px;line-height:1.25;font-family:sans-serif;letter-spacing:0px;word-spacing:0px;display:inline;fill:#000000;fill-opacity:1;stroke:none;stroke-width:0.26458332"
       x="107.35178"
       y="126.54046"
       id="text5651"><tspan
         sodipodi:role="line"
         id="tspan5649"
         x="107.35178"
         y="126.54046"
         style="stroke-width:0.26458332">standard1.js</tspan></text>
    <text
       xml:space="preserve"
       style="font-style:normal;font-weight:normal;font-size:4.93888855px;line-height:1.25;font-family:sans-serif;letter-spacing:0px;word-spacing:0px;display:inline;fill:#000000;fill-opacity:1;stroke:none;stroke-width:0.26458332"
       x="108.38071"
       y="137.17274"
       id="text5655"><tspan
         sodipodi:role="line"
         id="tspan5653"
         x="108.38071"
         y="137.17274"
         style="stroke-width:0.26458332">clickset.js</tspan></text>
    <text
       id="text4242"
       y="88.269318"
       x="121.34629"
       style="font-style:normal;font-weight:normal;font-size:7.84143686px;line-height:1.25;font-family:sans-serif;letter-spacing:0px;word-spacing:0px;display:inline;fill:#000000;fill-opacity:1;stroke:none;stroke-width:0.420077"
       xml:space="preserve"><tspan
         id="tspan4240"
         style="stroke-width:0.420077"
         y="88.269318"
         x="121.34629"
         sodipodi:role="line">v_tools</tspan></text>
    <text
       xml:space="preserve"
       style="font-style:normal;font-weight:normal;font-size:4.93888855px;line-height:1.25;font-family:sans-serif;letter-spacing:0px;word-spacing:0px;fill:#000000;fill-opacity:1;stroke:none;stroke-width:0.26458332"
       x="112.49643"
       y="158.78029"
       id="text5715"><tspan
         sodipodi:role="line"
         id="tspan5713"
         x="112.49643"
         y="158.78029"
         style="stroke-width:0.26458332">colorp3_1.js</tspan></text>
    <text
       xml:space="preserve"
       style="font-style:normal;font-weight:normal;font-size:4.93888855px;line-height:1.25;font-family:sans-serif;letter-spacing:0px;word-spacing:0px;fill:#000000;fill-opacity:1;stroke:none;stroke-width:0.26458332"
       x="115.9262"
       y="172.15639"
       id="text5719"><tspan
         sodipodi:role="line"
         id="tspan5717"
         x="115.9262"
         y="172.15639"
         style="stroke-width:0.26458332">. . .</tspan></text>
  </g>
</svg>
