<?xml version="1.0" encoding="UTF-8" standalone="no"?>
<!-- Created with Inkscape (http://www.inkscape.org/) -->

<svg
   xmlns:dc="http://purl.org/dc/elements/1.1/"
   xmlns:cc="http://creativecommons.org/ns#"
   xmlns:rdf="http://www.w3.org/1999/02/22-rdf-syntax-ns#"
   xmlns:svg="http://www.w3.org/2000/svg"
   xmlns="http://www.w3.org/2000/svg"
   xmlns:sodipodi="http://sodipodi.sourceforge.net/DTD/sodipodi-0.dtd"
   xmlns:inkscape="http://www.inkscape.org/namespaces/inkscape"
   width="210mm"
   height="297mm"
   viewBox="0 0 210 297"
   version="1.1"
   id="svg36047"
   inkscape:version="0.92.3 (2405546, 2018-03-11)"
   sodipodi:docname="_menu1.svg">
  <defs
     id="defs36041" />
  <sodipodi:namedview
     id="base"
     pagecolor="#ffffff"
     bordercolor="#666666"
     borderopacity="1.0"
     inkscape:pageopacity="0.0"
     inkscape:pageshadow="2"
     inkscape:zoom="0.50319178"
     inkscape:cx="137.77377"
     inkscape:cy="989.37586"
     inkscape:document-units="mm"
     inkscape:current-layer="layer1"
     showgrid="false"
     inkscape:window-width="1366"
     inkscape:window-height="700"
     inkscape:window-x="0"
     inkscape:window-y="0"
     inkscape:window-maximized="1"
     inkscape:snap-global="false" />
  <metadata
     id="metadata36044">
    <rdf:RDF>
      <cc:Work
         rdf:about="">
        <dc:format>image/svg+xml</dc:format>
        <dc:type
           rdf:resource="http://purl.org/dc/dcmitype/StillImage" />
        <dc:title></dc:title>
      </cc:Work>
    </rdf:RDF>
  </metadata>
  <g
     inkscape:label="Layer 1"
     inkscape:groupmode="layer"
     id="layer1">
    <rect
       style="opacity:1;vector-effect:none;fill:#000000;fill-opacity:0.15469612;fill-rule:evenodd;stroke:none;stroke-width:2.63570976;stroke-linecap:butt;stroke-linejoin:miter;stroke-miterlimit:4;stroke-dasharray:15.81425915, 2.63570987;stroke-dashoffset:0;stroke-opacity:0.56185566"
       id="rect36632"
       width="46.512173"
       height="44.15712"
       x="0.86302668"
       y="0.62136507"
       ry="9.025404" />
    <rect
       style="opacity:1;vector-effect:none;fill:#000000;fill-opacity:0.15469612;fill-rule:evenodd;stroke:none;stroke-width:2.63571;stroke-linecap:butt;stroke-linejoin:miter;stroke-miterlimit:4;stroke-dasharray:15.81425932, 2.63570989;stroke-dashoffset:0;stroke-opacity:0.56185566"
       id="rect36632-67"
       width="46.512173"
       height="44.15712"
       x="0.66900629"
       y="59.818298"
       ry="9.025404" />
    <path
       style="fill:#000000;fill-opacity:0.15469612;stroke:#000000;stroke-width:0.29093343px;stroke-linecap:butt;stroke-linejoin:miter;stroke-opacity:1"
       d="m 6.689272,8.656899 31.656265,3.218104 -4.493648,4.52842 7.721234,6.303434 -21.201384,18.744339 -4.591643,-6.705698 -4.043175,3.885117 z"
       id="path36592"
       inkscape:connector-curvature="0"
       sodipodi:nodetypes="cccccccc" />
    <rect
       style="opacity:1;vector-effect:none;fill:#000000;fill-opacity:0.15469612;fill-rule:evenodd;stroke:none;stroke-width:2.63571;stroke-linecap:butt;stroke-linejoin:miter;stroke-miterlimit:4;stroke-dasharray:15.81425932, 2.63570989;stroke-dashoffset:0;stroke-opacity:0.56185566"
       id="rect36632-6"
       width="46.512173"
       height="44.15712"
       x="60.427578"
       y="0.32698959"
       ry="9.025404" />
    <path
       style="opacity:1;vector-effect:none;fill:#000000;fill-opacity:0.15469612;fill-rule:evenodd;stroke:#000000;stroke-width:0.29093343px;stroke-linecap:butt;stroke-linejoin:miter;stroke-miterlimit:4;stroke-dasharray:none;stroke-dashoffset:0;stroke-opacity:1"
       d="M 79.166338,5.0322337 A 16.735769,16.735769 0 0 0 62.430684,21.76789 16.735769,16.735769 0 0 0 79.166338,38.503545 16.735769,16.735769 0 0 0 90.35377,34.188342 l 7.662187,7.662187 3.699803,-5.989065 -8.668869,-4.753826 A 16.735769,16.735769 0 0 0 95.901995,21.76789 16.735769,16.735769 0 0 0 79.166338,5.0322337 Z"
       id="path36649"
       inkscape:connector-curvature="0" />
    <rect
       style="opacity:1;vector-effect:none;fill:#000000;fill-opacity:0.15469612;fill-rule:evenodd;stroke:none;stroke-width:2.63571024;stroke-linecap:butt;stroke-linejoin:miter;stroke-miterlimit:4;stroke-dasharray:15.81425949, 2.63570992;stroke-dashoffset:0;stroke-opacity:0.56185566"
       id="rect36632-6-5"
       width="46.512173"
       height="44.15712"
       x="60.233555"
       y="59.523922"
       ry="9.025404" />
    <path
       style="fill:#b3b3b3;stroke:#000000;stroke-width:0.3928816px;stroke-linecap:butt;stroke-linejoin:miter;stroke-opacity:1"
       d="m 87.523172,63.003955 7.718824,18.010591 -6.248575,2.205376 1.837818,8.453952 -10.291767,5.513447 -5.513445,-8.086389 -7.718827,2.572942 C 66.453649,72.440345 70.247511,65.403291 87.523172,63.003955 Z"
       id="path930"
       inkscape:connector-curvature="0"
       sodipodi:nodetypes="cccccccc" />
    <path
       style="opacity:1;vector-effect:none;fill:#000000;fill-opacity:0.15469612;fill-rule:evenodd;stroke:#000000;stroke-width:0.29093343px;stroke-linecap:butt;stroke-linejoin:miter;stroke-miterlimit:4;stroke-dasharray:none;stroke-dashoffset:0;stroke-opacity:1"
       d="m 25.666402,65.913082 a 17.275464,17.275464 0 0 0 -4.638612,0.490332 17.275464,17.275464 0 0 0 -9.861176,6.661339 l 2.829209,2.064931 a 11.026892,11.026892 0 0 1 5.672995,-3.472244 11.026892,11.026892 0 0 1 13.338025,8.079394 11.026892,11.026892 0 0 1 -8.079396,13.338025 11.026892,11.026892 0 0 1 -13.338024,-8.079395 11.026892,11.026892 0 0 1 -0.218694,-1.253846 l -3.463037,0.04758 A 17.275464,17.275464 0 0 0 8.3704021,87.299805 17.275464,17.275464 0 0 0 29.266794,99.957194 17.275464,17.275464 0 0 0 41.924949,79.060803 17.275464,17.275464 0 0 0 25.666402,65.913082 Z"
       id="path951"
       inkscape:connector-curvature="0" />
    <path
       style="opacity:1;vector-effect:none;fill:#000000;fill-opacity:0.15469612;fill-rule:evenodd;stroke:#000000;stroke-width:0.29093343px;stroke-linecap:butt;stroke-linejoin:miter;stroke-miterlimit:4;stroke-dasharray:none;stroke-dashoffset:0;stroke-opacity:1"
       d="M 5.9373393,74.468405 19.26973,77.92931 17.205766,85.700036 C 14.146122,82.554159 9.4091875,80.756014 3.8733746,82.239129 Z"
       id="rect959"
       inkscape:connector-curvature="0"
       sodipodi:nodetypes="ccccc" />
  </g>
</svg>
