<?xml version="1.0" encoding="UTF-8" standalone="no"?>
<!-- Created with Inkscape (http://www.inkscape.org/) -->

<svg
   xmlns:dc="http://purl.org/dc/elements/1.1/"
   xmlns:cc="http://creativecommons.org/ns#"
   xmlns:rdf="http://www.w3.org/1999/02/22-rdf-syntax-ns#"
   xmlns:svg="http://www.w3.org/2000/svg"
   xmlns="http://www.w3.org/2000/svg"
   xmlns:sodipodi="http://sodipodi.sourceforge.net/DTD/sodipodi-0.dtd"
   xmlns:inkscape="http://www.inkscape.org/namespaces/inkscape"
   width="210mm"
   height="297mm"
   viewBox="0 0 210 297"
   version="1.1"
   id="svg33532"
   inkscape:version="0.92.3 (2405546, 2018-03-11)"
   sodipodi:docname="else1.svg">
  <sodipodi:namedview
     id="base"
     pagecolor="#ffffff"
     bordercolor="#666666"
     borderopacity="1.0"
     inkscape:pageopacity="0.0"
     inkscape:pageshadow="2"
     inkscape:zoom="0.86897125"
     inkscape:cx="319.15133"
     inkscape:cy="963.47572"
     inkscape:document-units="mm"
     inkscape:current-layer="layer1"
     showgrid="false"
     inkscape:window-width="1366"
     inkscape:window-height="700"
     inkscape:window-x="0"
     inkscape:window-y="0"
     inkscape:window-maximized="1"
     inkscape:snap-global="false" />
  <defs
     id="defs33526" />
  <metadata
     id="metadata33529">
    <rdf:RDF>
      <cc:Work
         rdf:about="">
        <dc:format>image/svg+xml</dc:format>
        <dc:type
           rdf:resource="http://purl.org/dc/dcmitype/StillImage" />
        <dc:title></dc:title>
      </cc:Work>
    </rdf:RDF>
  </metadata>
  <g
     id="layer1"
     inkscape:groupmode="layer"
     inkscape:label="Layer 1">
    <path
       id="path34283-9-6"
       style="opacity:1;vector-effect:none;fill:#ff2a2a;fill-opacity:0.55248617;fill-rule:evenodd;stroke:none;stroke-width:2.30251122;stroke-linecap:butt;stroke-linejoin:miter;stroke-miterlimit:4;stroke-dasharray:13.81506616, 2.30251104;stroke-dashoffset:0;stroke-opacity:0.56185566"
       d="M 13.767229,3.8407383 H 139.87378 c 6.06791,0 10.95291,5.3975006 10.95291,12.1020197 0,6.704518 -4.885,12.102019 -10.95291,12.102019 H 13.767229 c -6.0679159,0 -10.9529165,-5.397501 -10.9529165,-12.102019 0,-6.7045191 4.8850006,-12.1020197 10.9529165,-12.1020197 z m 55.419727,2.7146702 h 47.885364 c 4.11695,0 7.43131,3.3143637 7.43131,7.4313085 v 3.958678 c 0,4.116945 -3.31436,7.431308 -7.43131,7.431308 H 69.186956 c -4.116945,0 -7.431309,-3.314363 -7.431309,-7.431308 v -3.958678 c 0,-4.1169448 3.314364,-7.4313085 7.431309,-7.4313085 z"
       inkscape:connector-curvature="0"
       sodipodi:nodetypes="ssssssssssssssss" />
    <g
       aria-label="else"
       style="font-style:normal;font-weight:normal;font-size:16.56074333px;line-height:1.25;font-family:sans-serif;letter-spacing:0px;word-spacing:0px;fill:#0000ff;fill-opacity:1;stroke:none;stroke-width:0.88718265"
       id="text35294">
      <path
         d="m 21.304698,17.459813 v 0.727767 h -6.84101 q 0.09703,1.536397 0.921838,2.345027 0.832889,0.800544 2.312682,0.800544 0.857148,0 1.657691,-0.210244 0.80863,-0.210244 1.601088,-0.630731 v 1.407016 q -0.800544,0.339625 -1.641519,0.517523 -0.840975,0.177899 -1.70621,0.177899 -2.167128,0 -3.436677,-1.261463 -1.261463,-1.261463 -1.261463,-3.412419 0,-2.223732 1.196772,-3.525627 1.204859,-1.30998 3.242607,-1.30998 1.827504,0 2.886809,1.180599 1.067392,1.172514 1.067392,3.194089 z m -1.48788,-0.43666 q -0.01617,-1.221031 -0.687335,-1.948798 -0.663077,-0.727768 -1.762814,-0.727768 -1.24529,0 -1.997316,0.703509 -0.743939,0.703508 -0.857148,1.981143 z"
         style="fill:#0000ff;stroke-width:0.88718265"
         id="path35380" />
      <path
         d="M 23.746761,9.7778277 H 25.23464 V 22.360111 h -1.487879 z"
         style="fill:#0000ff;stroke-width:0.88718265"
         id="path35382" />
      <path
         d="m 34.113398,13.570303 v 1.407016 q -0.630732,-0.323452 -1.309981,-0.485178 -0.679249,-0.161726 -1.407016,-0.161726 -1.107823,0 -1.665778,0.339625 -0.549868,0.339624 -0.549868,1.018873 0,0.517524 0.396228,0.816717 0.396229,0.291107 1.593001,0.557954 l 0.509437,0.113209 q 1.584915,0.339624 2.247992,0.962269 0.671163,0.614559 0.671163,1.722382 0,1.261463 -1.002701,1.997317 -0.994615,0.735853 -2.741256,0.735853 -0.727767,0 -1.520225,-0.145553 -0.784371,-0.137468 -1.657691,-0.420488 v -1.536397 q 0.824802,0.428574 1.625346,0.646904 0.800544,0.210244 1.584915,0.210244 1.051219,0 1.61726,-0.355798 0.566041,-0.363883 0.566041,-1.018873 0,-0.606473 -0.412401,-0.929925 -0.404315,-0.323452 -1.787073,-0.622645 l -0.517523,-0.121295 q -1.382757,-0.291106 -1.997316,-0.889493 -0.614559,-0.606472 -0.614559,-1.657691 0,-1.277636 0.905666,-1.973058 0.905665,-0.695421 2.571443,-0.695421 0.824803,0 1.55257,0.121294 0.727767,0.121295 1.342326,0.363884 z"
         style="fill:#0000ff;stroke-width:0.88718265"
         id="path35384" />
      <path
         d="m 44.722625,17.459813 v 0.727767 h -6.841011 q 0.09704,1.536397 0.921839,2.345027 0.832889,0.800544 2.312682,0.800544 0.857147,0 1.657691,-0.210244 0.80863,-0.210244 1.601088,-0.630731 v 1.407016 q -0.800544,0.339625 -1.641519,0.517523 -0.840976,0.177899 -1.70621,0.177899 -2.167128,0 -3.436677,-1.261463 -1.261463,-1.261463 -1.261463,-3.412419 0,-2.223732 1.196772,-3.525627 1.204859,-1.30998 3.242607,-1.30998 1.827504,0 2.886809,1.180599 1.067392,1.172514 1.067392,3.194089 z m -1.48788,-0.43666 q -0.01617,-1.221031 -0.687335,-1.948798 -0.663077,-0.727768 -1.762814,-0.727768 -1.24529,0 -1.997316,0.703509 -0.74394,0.703508 -0.857148,1.981143 z"
         style="fill:#0000ff;stroke-width:0.88718265"
         id="path35386" />
    </g>
    <g
       aria-label="{"
       style="font-style:normal;font-weight:normal;font-size:18.13619232px;line-height:1.25;font-family:sans-serif;letter-spacing:0px;word-spacing:0px;fill:#000000;fill-opacity:1;stroke:none;stroke-width:0.97158176"
       id="text35360">
      <path
         d="m 57.556637,23.412768 v 1.275201 h -0.549045 q -2.205035,0 -2.957758,-0.655311 -0.743867,-0.655312 -0.743867,-2.612391 v -2.11648 q 0,-1.33719 -0.478201,-1.850813 -0.4782,-0.513622 -1.73569,-0.513622 h -0.540189 v -1.266346 h 0.540189 q 1.266345,0 1.73569,-0.504767 0.478201,-0.513622 0.478201,-1.833101 v -2.125335 q 0,-1.9570795 0.743867,-2.6035356 0.752723,-0.6553116 2.957758,-0.6553116 h 0.549045 v 1.2663454 h -0.602179 q -1.248634,0 -1.629423,0.3896448 -0.380789,0.3896447 -0.380789,1.638279 v 2.19618 q 0,1.390323 -0.407356,2.019068 -0.398501,0.628745 -1.372612,0.850134 0.982967,0.2391 1.381467,0.867845 0.398501,0.628745 0.398501,2.010213 v 2.196179 q 0,1.248635 0.380789,1.638279 0.380789,0.389645 1.629423,0.389645 z"
         style="stroke-width:0.97158176"
         id="path35392" />
    </g>
    <g
       aria-label="}"
       style="font-style:normal;font-weight:normal;font-size:18.13619232px;line-height:1.25;font-family:sans-serif;letter-spacing:0px;word-spacing:0px;fill:#000000;fill-opacity:1;stroke:none;stroke-width:0.97158176"
       id="text35360-2">
      <path
         d="m 129.25038,23.363841 h 0.61989 q 1.23978,0 1.61172,-0.380789 0.38079,-0.38079 0.38079,-1.647135 v -2.19618 q 0,-1.381467 0.3985,-2.010212 0.3985,-0.628745 1.38146,-0.867845 -0.98296,-0.221389 -1.38146,-0.850134 -0.3985,-0.628745 -0.3985,-2.019069 v -2.196179 q 0,-1.2574901 -0.38079,-1.6382793 -0.37194,-0.3896448 -1.61172,-0.3896448 h -0.61989 V 7.9020285 h 0.5579 q 2.20504,0 2.94005,0.6553116 0.74387,0.6464561 0.74387,2.6035359 v 2.125335 q 0,1.319478 0.4782,1.833101 0.4782,0.504767 1.73569,0.504767 h 0.54904 v 1.266346 h -0.54904 q -1.25749,0 -1.73569,0.513622 -0.4782,0.513623 -0.4782,1.850813 v 2.116479 q 0,1.95708 -0.74387,2.612391 -0.73501,0.655312 -2.94005,0.655312 h -0.5579 z"
         style="stroke-width:0.97158176"
         id="path35389" />
    </g>
  </g>
</svg>
