<?xml version="1.0" encoding="UTF-8" standalone="no"?>
<!-- Created with Inkscape (http://www.inkscape.org/) -->

<svg
   xmlns:dc="http://purl.org/dc/elements/1.1/"
   xmlns:cc="http://creativecommons.org/ns#"
   xmlns:rdf="http://www.w3.org/1999/02/22-rdf-syntax-ns#"
   xmlns:svg="http://www.w3.org/2000/svg"
   xmlns="http://www.w3.org/2000/svg"
   xmlns:sodipodi="http://sodipodi.sourceforge.net/DTD/sodipodi-0.dtd"
   xmlns:inkscape="http://www.inkscape.org/namespaces/inkscape"
   width="210mm"
   height="297mm"
   viewBox="0 0 210 297"
   version="1.1"
   id="svg33532"
   inkscape:version="0.92.3 (2405546, 2018-03-11)"
   sodipodi:docname="settimeout1.svg">
  <sodipodi:namedview
     id="base"
     pagecolor="#ffffff"
     bordercolor="#666666"
     borderopacity="1.0"
     inkscape:pageopacity="0.0"
     inkscape:pageshadow="2"
     inkscape:zoom="0.61742314"
     inkscape:cx="152.44613"
     inkscape:cy="1037.9951"
     inkscape:document-units="mm"
     inkscape:current-layer="layer1"
     showgrid="false"
     inkscape:window-width="1366"
     inkscape:window-height="700"
     inkscape:window-x="0"
     inkscape:window-y="0"
     inkscape:window-maximized="1"
     inkscape:snap-global="false"
     showguides="true"
     inkscape:guide-bbox="true" />
  <defs
     id="defs33526" />
  <metadata
     id="metadata33529">
    <rdf:RDF>
      <cc:Work
         rdf:about="">
        <dc:format>image/svg+xml</dc:format>
        <dc:type
           rdf:resource="http://purl.org/dc/dcmitype/StillImage" />
        <dc:title></dc:title>
      </cc:Work>
    </rdf:RDF>
  </metadata>
  <g
     id="layer1"
     inkscape:groupmode="layer"
     inkscape:label="Layer 1">
    <path
       id="rect4868"
       style="opacity:1;vector-effect:none;fill:#ffa4a4;fill-opacity:1;fill-rule:evenodd;stroke:none;stroke-width:0.19592704px;stroke-linecap:butt;stroke-linejoin:miter;stroke-miterlimit:4;stroke-dasharray:none;stroke-dashoffset:0;stroke-opacity:1"
       d="m 174.28536,1.4785857 h 17.12443 c 2.90415,0 5.24216,2.338 5.24216,5.24216 v 7.3390503 c 0,2.90415 -2.33801,5.24216 -5.24216,5.24216 h -17.12443 c -2.90415,0 -5.24216,-2.33801 -5.24216,-5.24216 V 6.7207457 c 0,-2.90416 2.33801,-5.24216 5.24216,-5.24216 z m -58.36278,0.34948 h 36.69517 c 2.90416,0 5.24217,2.33801 5.24217,5.24217 v 6.2906003 c 0,2.90416 -2.33801,5.24216 -5.24217,5.24216 h -36.69517 c -2.90416,0 -5.24216,-2.338 -5.24216,-5.24216 V 7.0702357 c 0,-2.90416 2.338,-5.24217 5.24216,-5.24217 z M 3.7402019,-1.6667083 H 209.93211 c 2.90416,0 5.24217,2.33800405 5.24217,5.242164 V 20.000916 c 0,2.90416 -2.33801,5.24217 -5.24217,5.24217 H 3.7402019 c -2.90415817,0 -5.2421629,-2.33801 -5.2421629,-5.24217 V 3.5754557 c 0,-2.90415995 2.33800473,-5.242164 5.2421629,-5.242164 z"
       inkscape:connector-curvature="0" />
    <text
       xml:space="preserve"
       style="font-style:normal;font-weight:normal;font-size:16.56074333px;line-height:1.25;font-family:sans-serif;letter-spacing:0px;word-spacing:0px;fill:#0000ff;fill-opacity:1;stroke:none;stroke-width:0.88718265"
       x="2.5606902"
       y="16.575663"
       id="text35294"><tspan
         sodipodi:role="line"
         id="tspan35292"
         x="2.5606902"
         y="16.575663"
         style="fill:#0000ff;stroke-width:0.88718265">setTimeout (          ,       )</tspan></text>
  </g>
</svg>
