<?xml version="1.0" encoding="UTF-8" standalone="no"?>
<!-- Created with Inkscape (http://www.inkscape.org/) -->

<svg
   xmlns:dc="http://purl.org/dc/elements/1.1/"
   xmlns:cc="http://creativecommons.org/ns#"
   xmlns:rdf="http://www.w3.org/1999/02/22-rdf-syntax-ns#"
   xmlns:svg="http://www.w3.org/2000/svg"
   xmlns="http://www.w3.org/2000/svg"
   xmlns:sodipodi="http://sodipodi.sourceforge.net/DTD/sodipodi-0.dtd"
   xmlns:inkscape="http://www.inkscape.org/namespaces/inkscape"
   width="210mm"
   height="297mm"
   viewBox="0 0 210 297"
   version="1.1"
   id="svg10486"
   inkscape:version="0.92.3 (2405546, 2018-03-11)"
   sodipodi:docname="wordfon2.svg">
  <defs
     id="defs10480" />
  <sodipodi:namedview
     id="base"
     pagecolor="#ffffff"
     bordercolor="#666666"
     borderopacity="1.0"
     inkscape:pageopacity="0.0"
     inkscape:pageshadow="2"
     inkscape:zoom="0.373434"
     inkscape:cx="153.61225"
     inkscape:cy="1042.7013"
     inkscape:document-units="mm"
     inkscape:current-layer="layer1"
     showgrid="false"
     inkscape:window-width="1366"
     inkscape:window-height="700"
     inkscape:window-x="0"
     inkscape:window-y="0"
     inkscape:window-maximized="1"
     inkscape:snap-global="false" />
  <metadata
     id="metadata10483">
    <rdf:RDF>
      <cc:Work
         rdf:about="">
        <dc:format>image/svg+xml</dc:format>
        <dc:type
           rdf:resource="http://purl.org/dc/dcmitype/StillImage" />
        <dc:title></dc:title>
      </cc:Work>
    </rdf:RDF>
  </metadata>
  <g
     inkscape:label="Layer 1"
     inkscape:groupmode="layer"
     id="layer1">
    <rect
       style="opacity:1;vector-effect:none;fill:#00ff00;fill-opacity:0.27071825;fill-rule:evenodd;stroke:#0000ff;stroke-width:0.72449613;stroke-linecap:butt;stroke-linejoin:miter;stroke-miterlimit:4;stroke-dasharray:none;stroke-dashoffset:0;stroke-opacity:1"
       id="rect11997"
       width="56.384174"
       height="124.12291"
       x="8.5510426"
       y="0.93200171"
       ry="7.5412235" />
    <rect
       style="opacity:1;vector-effect:none;fill:#008000;fill-opacity:1;fill-rule:evenodd;stroke:none;stroke-width:0.86500001;stroke-linecap:butt;stroke-linejoin:miter;stroke-miterlimit:4;stroke-dasharray:none;stroke-dashoffset:0;stroke-opacity:1"
       id="rect12658"
       width="50.475273"
       height="16.90859"
       x="10.395652"
       y="2.4147818"
       ry="6.5306964" />
    <path
       inkscape:connector-curvature="0"
       id="path12645"
       style="font-style:normal;font-weight:normal;font-size:medium;line-height:1.25;font-family:sans-serif;letter-spacing:0px;word-spacing:0px;fill:#ffff00;fill-opacity:1;stroke:none;stroke-width:0.58459657"
       d="m 15.236252,6.5199577 h 1.076327 V 13.56937 h 3.873714 v 0.90582 h -4.950041 z" />
    <path
       inkscape:connector-curvature="0"
       id="path12647"
       style="font-style:normal;font-weight:normal;font-size:medium;line-height:1.25;font-family:sans-serif;letter-spacing:0px;word-spacing:0px;fill:#ffff00;fill-opacity:1;stroke:none;stroke-width:0.58459657"
       d="m 21.267949,8.5074337 h 0.980417 V 14.47519 h -0.980417 z m 0,-2.3231623 h 0.980417 v 1.2415064 h -0.980417 z" />
    <path
       inkscape:connector-curvature="0"
       id="path12649"
       style="font-style:normal;font-weight:normal;font-size:medium;line-height:1.25;font-family:sans-serif;letter-spacing:0px;word-spacing:0px;fill:#ffff00;fill-opacity:1;stroke:none;stroke-width:0.58459657"
       d="M 28.098898,8.6832694 V 9.610403 q -0.415612,-0.2131342 -0.863193,-0.3197013 -0.447582,-0.106567 -0.927134,-0.106567 -0.729984,0 -1.097641,0.2237908 -0.362328,0.2237909 -0.362328,0.6713725 0,0.341015 0.261089,0.538164 0.26109,0.191821 1.049686,0.367656 l 0.335686,0.0746 q 1.044358,0.223791 1.481283,0.634074 0.442253,0.404955 0.442253,1.13494 0,0.831223 -0.660716,1.316103 -0.655387,0.48488 -1.806312,0.48488 -0.479551,0 -1.00173,-0.09591 -0.51685,-0.09058 -1.092313,-0.277075 V 13.24434 q 0.543492,0.282403 1.070999,0.426269 0.527507,0.138537 1.044358,0.138537 0.692686,0 1.065671,-0.234448 0.372984,-0.239776 0.372984,-0.671372 0,-0.399627 -0.271746,-0.612761 -0.266417,-0.213134 -1.177566,-0.410283 l -0.341015,-0.07993 q -0.911148,-0.19182 -1.316103,-0.586119 -0.404955,-0.399626 -0.404955,-1.092312 0,-0.84188 0.596776,-1.3001184 0.596775,-0.4582385 1.694416,-0.4582385 0.543492,0 1.023044,0.079925 0.479552,0.079925 0.884507,0.2397763 z" />
    <path
       inkscape:connector-curvature="0"
       id="path12651"
       style="font-style:normal;font-weight:normal;font-size:medium;line-height:1.25;font-family:sans-serif;letter-spacing:0px;word-spacing:0px;fill:#ffff00;fill-opacity:1;stroke:none;stroke-width:0.58459657"
       d="m 30.954896,6.8130171 v 1.6944166 h 2.019446 v 0.7619546 h -2.019446 v 3.2396397 q 0,0.729984 0.197149,0.93779 0.202478,0.207806 0.815238,0.207806 h 1.007059 v 0.820566 h -1.007059 q -1.134939,0 -1.566536,-0.42094 -0.431596,-0.426268 -0.431596,-1.545222 V 9.2693883 H 29.249823 V 8.5074337 h 0.719328 V 6.8130171 Z" />
    <path
       inkscape:connector-curvature="0"
       id="path12653"
       style="font-style:normal;font-weight:normal;font-size:medium;line-height:1.25;font-family:sans-serif;letter-spacing:0px;word-spacing:0px;fill:#ffff00;fill-opacity:1;stroke:none;stroke-width:0.45708722"
       d="m 41.79432,10.72148 h -1.212353 l -0.349957,1.391497 h 1.220685 z m -0.624925,-2.3705442 -0.43328,1.7289562 h 1.216518 L 42.39008,8.3509358 h 0.666586 l -0.429115,1.7289562 h 1.299842 v 0.641588 h -1.462322 l -0.341626,1.391497 h 1.324839 V 12.7504 h -1.487318 l -0.433281,1.72479 h -0.666586 l 0.429115,-1.72479 h -1.220685 l -0.429114,1.72479 h -0.670751 l 0.433279,-1.72479 h -1.312339 v -0.637423 h 1.466487 l 0.349958,-1.391497 h -1.341503 v -0.641588 h 1.503983 l 0.424948,-1.7289562 z" />
    <path
       inkscape:connector-curvature="0"
       id="path12655"
       style="font-style:normal;font-weight:normal;font-size:medium;line-height:1.25;font-family:sans-serif;letter-spacing:0px;word-spacing:0px;fill:#ffff00;fill-opacity:1;stroke:none;stroke-width:0.58459657"
       d="m 51.116447,13.56937 h 3.756489 v 0.90582 h -5.051279 v -0.90582 q 0.61276,-0.634074 1.667774,-1.699745 1.060343,-1.070999 1.332089,-1.380044 0.51685,-0.5807902 0.719328,-0.9804168 0.207805,-0.4049549 0.207805,-0.7939247 0,-0.6340741 -0.447581,-1.0337007 -0.442254,-0.3996265 -1.156253,-0.3996265 -0.506194,0 -1.070999,0.1758357 -0.559477,0.1758357 -1.19888,0.5328354 V 6.9035992 q 0.650059,-0.2610894 1.214865,-0.3942982 0.564805,-0.1332089 1.0337,-0.1332089 1.236179,0 1.971491,0.6180891 0.735313,0.618089 0.735313,1.6517897 0,0.4902086 -0.186492,0.9324619 -0.181164,0.4369252 -0.666044,1.0337002 -0.133209,0.154523 -0.847209,0.895164 -0.713999,0.735313 -2.014117,2.062073 z" />
  </g>
</svg>
